<svg width="300" height="276" viewBox="0 0 300 276" fill="none" xmlns="http://www.w3.org/2000/svg">
<circle cx="149.993" cy="138" r="138" fill="url(#paint0_linear)"/>
<mask id="mask0" mask-type="alpha" maskUnits="userSpaceOnUse" x="11" y="0" width="277" height="276">
<circle cx="149.993" cy="138" r="138" fill="url(#paint1_linear)"/>
</mask>
<g mask="url(#mask0)">
<path d="M33.2642 61.3333C4.38629 74.4297 -17.0529 98.8563 -19.7119 140.275C-29.4566 291.075 261.464 319.575 295.66 196.029C263.061 154.436 202.821 188.95 159.237 177.267C107.323 163.462 108.032 123.105 68.1692 82.0426C57.8898 71.4209 45.6679 65.0507 33.2642 61.3333Z" fill="url(#paint2_linear)"/>
<path d="M274.318 81.8968C273.81 74.4502 274.995 66.8333 276.517 53.9694C277.024 50.2444 276.517 46.3526 275.332 42.4607C269.915 44.6603 264.331 49.2298 259.932 59.7238C251.47 79.864 237.251 87.4809 229.975 86.6364C222.865 85.7886 227.098 78.1752 234.715 70.051C242.332 61.9268 242.161 49.2332 252.485 37.7245C256.884 32.8145 262.131 29.9374 266.704 28.2451C263.827 25.0308 260.442 22.1503 256.547 19.6136C245.716 24.6904 235.222 31.9701 228.96 42.8012C211.527 73.0984 198.833 82.2373 149.581 76.9902C94.741 71.0656 15.7021 88.6692 -5.62645 145.031C-6.64453 170.926 1.82015 192.928 16.206 211.039C34.1467 181.59 71.3831 145.538 146.023 139.107C232.175 131.66 261.454 103.903 274.318 82.2373V81.8968ZM154.654 89.8541C154.654 89.8541 121.48 85.4549 99.9846 92.7313C78.4892 100.008 75.4418 118.459 87.9685 124.213C100.492 129.968 125.205 131.66 153.132 118.966C181.06 106.443 167.351 89.517 154.825 89.6839L154.654 89.8541Z" fill="white" fill-opacity="0.102"/>
<path d="M66.7293 113.495C56.8073 109.95 45.9421 115.149 42.3976 125.306C38.853 135.228 44.0524 146.093 54.2093 149.638C64.1313 153.183 74.9965 147.983 78.541 137.826C82.0822 127.904 76.8862 117.039 66.7293 113.495Z" fill="url(#paint3_linear)"/>
<path d="M65.7825 113.495C71.2168 118.929 75.7045 125.541 74.2846 131.684C73.1031 137.588 73.3414 142.076 74.2846 145.147C71.6866 147.745 68.6154 149.4 65.0708 150.343C64.3626 148.453 63.8893 146.328 64.1243 143.965C64.8325 130.972 72.6298 127.901 66.9606 119.164C64.8359 116.093 61.9996 113.968 59.4016 112.548C61.5263 112.313 63.6544 112.548 65.7791 113.256V113.495H65.7825ZM53.7358 113.26C57.2803 115.149 61.2948 118.929 59.8783 125.071C57.2803 135.463 48.5398 136.883 49.7214 143.969C49.9563 145.624 50.4296 147.04 51.1378 148.222C45.7035 145.15 42.1624 139.954 41.2158 134.05C43.3405 130.744 46.6501 127.673 49.9563 126.018C55.1522 123.655 55.8605 117.986 51.6111 114.445C52.3193 113.971 53.0276 113.736 53.7358 113.501V113.26Z" fill="url(#paint4_linear)"/>
<path d="M42.397 124.833C27.0441 129.321 16.8871 135.225 17.5954 139.478C18.7769 145.147 38.6175 146.328 62.241 141.841C85.861 137.353 104.05 129.086 102.869 123.178C101.926 118.691 90.3487 117.036 74.5226 118.452C74.9959 119.16 75.4691 119.634 75.939 120.342C84.9145 119.869 90.822 120.815 91.2919 122.94C92.0001 126.484 78.2987 132.154 61.056 135.221C43.5751 138.528 28.9304 138.293 28.2222 134.748C27.7489 132.385 33.1832 129.314 41.4504 126.716C41.6853 126.008 41.6853 125.299 41.9237 124.826C41.9237 124.826 41.9237 124.591 42.1586 124.591L42.397 124.833Z" fill="white" fill-opacity="0.349"/>
<path d="M66.3574 16.0634L101.517 -4.18182L121.767 30.9821L86.6066 51.2273L66.3574 16.0634Z" stroke="white" stroke-opacity="0.102" stroke-width="16.0004" stroke-linecap="round" stroke-linejoin="round"/>
<path d="M213.557 55.4949C216.942 55.4949 219.649 58.2018 219.649 61.5897C219.649 64.9742 216.942 67.6846 213.557 67.6846C210.173 67.6846 207.466 64.9776 207.466 61.5897C207.462 58.2018 210.173 55.4949 213.557 55.4949Z" stroke="#CC36B1" stroke-opacity="0.102" stroke-width="16.0004"/>
<path d="M122.5 240.659C125.884 240.659 128.594 243.366 128.594 246.75C128.594 250.135 125.888 252.842 122.5 252.842C119.115 252.842 116.408 250.135 116.408 246.75C116.405 243.366 119.115 240.659 122.5 240.659Z" stroke="#0B2EA4" stroke-opacity="0.102" stroke-width="16.0004"/>
<path d="M227.942 176.85L234.711 169.233L242.328 175.836L235.729 183.619L227.942 176.85Z" stroke="#582CDB" stroke-opacity="0.102" stroke-width="16.0004" stroke-linecap="round" stroke-linejoin="round"/>
<path d="M216.479 84.7706C209.499 80.5825 200.36 82.9932 196.301 89.9733C192.113 96.9535 194.524 106.092 201.504 110.151C208.484 114.339 217.623 111.928 221.681 104.948C225.869 97.9681 223.459 88.8327 216.479 84.7706Z" fill="url(#paint5_linear)"/>
<path d="M205.693 83.2485C207.47 85.9146 210.007 88.3253 213.181 90.1027C216.354 91.8801 219.653 93.0207 222.827 93.2761C222.827 93.4021 222.953 93.5315 222.953 93.6574C223.079 93.7834 223.079 93.9128 223.079 94.0388C223.205 94.1648 223.205 94.2942 223.205 94.4202C223.331 94.5461 223.331 94.6755 223.331 94.8015C223.331 94.9275 223.457 95.1829 223.457 95.4348C223.457 95.6902 223.583 96.0682 223.583 96.4495C223.583 96.7049 223.583 96.8309 223.583 97.0828C219.65 97.2088 215.207 96.1941 211.144 93.7834C207.082 91.3727 204.038 87.9474 202.261 84.3926C202.516 84.2666 202.642 84.2666 202.894 84.1372C203.276 84.0113 203.528 83.8819 203.909 83.7559C204.035 83.6299 204.29 83.6299 204.542 83.5005C204.668 83.5005 204.798 83.3745 204.924 83.3745C205.05 83.2485 205.179 83.2485 205.305 83.2485C205.431 83.1226 205.56 83.1226 205.686 83.1226C205.812 82.9966 205.942 82.9966 206.068 82.9966L205.693 83.2485ZM208.737 97.9681C213.559 100.886 218.761 101.775 223.331 101.016C223.331 101.142 223.331 101.142 223.331 101.271C223.205 101.397 223.205 101.526 223.205 101.652C218.635 102.415 213.307 101.526 208.356 98.6048C203.534 95.6868 200.106 91.4987 198.584 87.0553C198.71 86.9293 198.71 86.9293 198.839 86.7999L198.965 86.6739C200.49 90.988 203.916 95.1761 208.737 97.9681ZM197.191 88.9586C198.587 93.5281 202.142 97.9681 207.215 101.016C212.292 104.063 217.876 104.948 222.571 103.934C222.571 104.06 222.445 104.06 222.445 104.189C222.319 104.57 222.19 104.822 221.938 105.204C221.812 105.459 221.683 105.585 221.557 105.837C221.431 105.837 221.431 105.963 221.301 106.092C221.175 106.092 221.175 106.218 221.046 106.348C220.92 106.348 220.92 106.474 220.791 106.603C220.535 106.984 220.283 107.236 220.028 107.492C219.902 107.618 219.902 107.618 219.773 107.747L219.647 107.873C215.077 108.762 209.748 107.873 204.798 104.955C199.976 102.037 196.547 97.8489 195.025 93.4055V93.2795C195.025 93.1535 195.151 93.0241 195.151 92.8981C195.277 92.5168 195.407 92.2648 195.533 91.8835C195.533 91.7575 195.659 91.6281 195.659 91.5021C195.659 91.3761 195.785 91.2467 195.785 91.1208C195.785 90.9948 195.911 90.8654 195.911 90.7394C196.037 90.484 196.166 90.3581 196.292 90.1061C196.547 89.7247 196.673 89.3434 196.925 89.0914C196.925 88.9654 197.051 88.9654 197.051 88.8361L197.191 88.9586ZM194.144 96.1907C195.795 100.253 199.094 103.934 203.534 106.596C207.978 109.262 212.799 110.277 217.113 109.77C217.113 109.896 216.987 110.025 216.858 110.025C216.858 110.025 216.732 110.151 216.603 110.151C216.603 110.151 216.477 110.277 216.347 110.277C212.285 110.658 207.59 109.644 203.402 107.104C199.088 104.567 196.04 101.138 194.263 97.3314C194.263 97.2054 194.263 97.076 194.263 96.95C194.263 96.6947 194.263 96.4427 194.263 96.1873H194.144V96.1907Z" fill="url(#paint6_linear)"/>
<path d="M31.9474 99.8374L22.8051 94.5938L17.5615 103.733L26.5301 108.98L31.9474 99.8374Z" stroke="#582CDB" stroke-opacity="0.102" stroke-width="16.0004" stroke-linecap="round" stroke-linejoin="round"/>
<path d="M94.224 159.809C94.0674 160.278 92.5079 165.113 92.9744 182.128C93.5975 199.452 80.6451 192.585 77.3662 205.384C65.3467 252.675 36.9427 211.315 5.25977 247.837L6.19612 248.616C37.5658 212.718 66.2865 254.234 78.6158 205.697C81.7381 193.678 94.8471 200.392 94.224 182.128C93.6009 164.49 95.317 160.278 95.317 160.278L94.6939 160.122L95.317 160.278C96.8765 152.161 106.243 150.135 108.273 155.127L109.366 154.657C106.87 148.412 95.9435 150.755 94.0708 159.962L94.224 159.809Z" fill="#4F29C2"/>
<path d="M181.005 152.628L252.018 175.883C252.018 175.883 223.924 207.1 220.802 208.659C217.523 210.066 100.154 186.81 100.154 186.81C100.154 186.81 100.934 174.947 107.489 168.706C114.043 162.464 181.158 152.631 181.158 152.631H181.005V152.628Z" fill="#B693FF"/>
<path d="M139.333 194.457C130.279 192.741 121.852 191.025 115.141 189.775C115.454 185.094 116.077 180.878 117.013 179.162C119.043 175.883 142.142 162.774 151.662 157.313C153.691 157 155.721 156.533 157.593 156.22L171.952 167.146C171.952 167.146 172.109 174.171 165.707 178.073C159.153 181.975 151.815 183.691 150.879 184.004C149.943 184.474 140.579 188.529 139.643 189.779C139.329 190.249 139.329 192.121 139.329 194.304V194.457H139.333Z" fill="#9B72FF"/>
<path d="M181.472 202.261C179.287 201.792 177.104 201.482 174.918 201.012L178.507 181.971L226.891 173.074L234.382 176.663C234.382 176.663 236.724 182.281 227.048 188.682C217.371 195.08 196.301 190.868 194.272 191.335C192.712 191.648 184.438 199.139 181.316 201.948L181.472 202.261Z" fill="#9B72FF"/>
<path d="M227.2 195.707L163.677 185.407C164.3 184.471 164.927 183.847 165.863 183.221C167.892 181.661 186.776 169.485 186.933 169.485L185.683 169.016C185.683 169.016 167.109 180.565 165.08 182.125C163.987 182.904 163.207 183.841 162.427 185.09L99.6879 174.947L99.5312 176.197L161.804 186.34C161.334 187.433 160.868 188.682 160.711 190.242C160.088 194.301 159.618 198.826 159.618 198.982L160.868 199.139C160.868 199.139 161.491 194.457 161.961 190.555C162.117 188.996 162.584 187.746 163.054 186.653L227.046 196.953L227.2 195.707Z" fill="#9B72FF"/>
<path d="M96.4098 165.27L95.1602 158.559L133.241 146.696C133.241 146.696 134.8 162.614 134.334 163.554C133.864 164.49 101.558 183.064 101.558 183.064L96.4098 165.27Z" fill="#B693FF"/>
<path d="M267.158 146.073L271.683 132.028L162.119 126.563L141.985 125.94L138.083 127.812C132.152 139.519 130.749 149.818 130.436 162.774C130.123 175.73 152.755 164.181 152.755 164.181L250.46 179.319L259.2 169.019L265.598 146.233L267.158 145.92V146.073Z" fill="#D4B3FF"/>
<path d="M187.09 127.969L163.991 126.876C162.741 129.842 161.182 133.431 159.622 137.333C153.378 152.784 133.244 168.549 133.244 168.549L140.269 168.862C146.2 167.769 152.598 164.494 152.598 164.494L171.952 167.459L172.108 160.905C172.108 160.905 173.824 160.435 175.074 157.939C176.167 155.443 176.01 145.453 176.79 142.174C177.256 140.612 182.251 134.057 187.09 127.969Z" fill="#B693FF"/>
<path d="M244.683 130.778L214.716 129.372C214.559 130.931 216.588 138.579 215.809 141.078C215.029 143.574 205.196 145.293 200.827 150.285C196.458 155.277 195.209 155.437 196.302 157.776C197.395 160.115 211.13 167.139 211.753 167.609C212.377 168.079 215.032 179.002 213.939 181.188L234.073 176.973C234.543 174.32 234.386 172.448 234.386 172.448C234.386 172.448 242.347 172.918 244.843 172.761C247.339 172.604 251.241 171.202 251.554 169.639C251.867 168.079 249.681 158.869 249.681 158.869C249.681 158.869 253.896 156.373 252.803 151.535C251.867 146.54 250.308 145.603 251.397 140.608C252.647 134.833 247.182 133.274 244.686 130.931V130.778H244.683Z" fill="#B693FF"/>
<path d="M251.861 175.883L263.568 182.281C263.568 182.281 272.465 138.735 272.931 137.176C273.398 135.617 273.401 132.494 271.525 132.024C269.652 131.711 267 132.338 264.191 137.486C261.538 142.791 255.294 170.575 255.294 170.575L251.861 175.727V175.883Z" fill="#B693FF"/>
<path d="M96.4092 186.03L104.836 184.001C104.836 184.001 102.341 200.389 101.557 201.168C100.778 201.948 99.6847 202.105 99.0616 201.168C98.2819 200.232 96.4092 186.03 96.4092 186.03Z" fill="#5E35D9"/>
<path d="M219.709 211.312L229.229 209.126C229.229 209.126 224.861 227.073 223.768 228.01C222.831 228.946 221.738 229.103 220.959 228.01C220.335 226.92 219.709 211.312 219.709 211.312Z" fill="#5E35D9"/>
<path d="M254.827 193.521L260.915 192.115C260.915 192.115 258.106 203.508 257.483 204.134C256.86 204.757 256.233 204.757 255.767 204.134C255.297 203.511 254.987 193.521 254.987 193.521H254.827Z" fill="#5E35D9"/>
<path d="M260.76 174.011L265.755 173.854L260.917 191.648C260.917 191.648 259.98 193.834 258.574 195.08C257.015 196.33 228.294 213.964 228.294 213.964L234.069 187.899L260.757 173.854V174.011H260.76Z" fill="#B693FF"/>
<path d="M265.598 174.637L261.849 188.526L229.856 207.413L234.068 188.059L235.784 187.123L265.598 174.637Z" fill="#9B72FF"/>
<path d="M230.009 181.815C230.009 181.815 254.825 165.427 255.918 164.957C256.697 164.487 261.536 163.397 265.751 166.673C266.374 167.296 268.404 169.169 268.56 172.448C268.717 176.506 267.001 179.629 265.281 181.032C265.125 181.032 265.125 181.188 264.968 181.345L243.118 195.547C243.118 195.547 241.869 196.327 239.84 195.86C237.81 195.39 236.094 193.518 236.094 193.518C236.094 193.518 234.221 198.356 232.505 205.537C230.789 212.718 229.54 216.62 217.677 214.744C205.814 212.871 97.3428 191.645 97.3428 191.645C97.3428 191.645 95.47 191.488 95.47 188.366C95.47 185.244 94.5337 173.071 94.377 172.601C94.2204 172.288 89.5386 171.821 89.6952 165.42C89.8519 159.022 95.47 156.993 98.749 159.332C102.028 161.518 101.871 164.17 101.871 166.666C101.871 169.162 101.871 175.25 101.871 175.25L109.832 187.423C109.832 187.423 213.778 205.997 216.121 206.153C218.617 206.31 221.426 205.53 221.895 202.251C222.209 198.982 227.047 183.374 230.009 181.815Z" fill="#D4B3FF"/>
<path d="M139.799 199.919C130.592 198.203 122.004 196.487 114.983 195.08C114.983 192.894 115.14 190.712 115.297 188.526C120.602 189.462 129.189 191.022 139.332 192.741C139.332 194.771 139.485 197.58 139.799 199.919Z" fill="#B693FF"/>
<path d="M94.5372 173.544C94.5372 173.074 94.5372 172.764 94.3806 172.764C94.3806 172.764 97.9694 171.985 98.126 168.083C98.126 166.367 97.5029 164.96 96.0967 164.494C93.7541 163.557 92.5079 165.9 93.4443 167.459C94.0674 168.552 94.8505 167.616 95.0037 168.239C95.317 169.176 92.5079 169.176 92.3513 166.523C92.1946 162.155 99.0624 162.464 98.9058 168.083C98.7526 172.608 94.8505 173.387 94.5372 173.544Z" fill="#9B72FF"/>
<path d="M230.01 181.815C230.01 181.815 254.825 165.427 255.918 164.957C256.698 164.487 261.536 163.397 265.752 166.673C266.375 167.296 268.404 169.169 268.561 172.448C268.717 176.506 267.001 179.629 265.282 181.032C265.125 181.032 265.125 181.188 264.968 181.345L243.119 195.547C251.703 190.395 241.403 174.32 229.54 182.281C229.697 182.125 230.01 181.811 230.163 181.811H230.01V181.815Z" fill="#B693FF"/>
<path d="M237.812 198.203C237.655 198.673 238.282 198.982 238.592 198.516L239.528 196.33C239.685 196.173 239.528 195.86 239.215 195.86C235.626 194.924 232.817 188.369 235.783 186.806C238.125 185.713 240.308 188.213 239.528 189.929C239.058 191.022 238.278 189.929 238.122 190.708C237.809 191.645 240.464 191.645 240.464 189.149C240.464 186.497 237.655 185.09 235.469 186.183C231.881 187.899 234.376 194.767 238.592 196.483L237.812 198.356V198.203Z" fill="#9B72FF"/>
<path d="M202.229 128.749L199.733 128.592C198.017 129.685 196.144 131.714 194.738 135.303C191.929 142.171 187.091 162.148 185.531 169.329L186.781 169.485C188.497 162.304 193.179 142.484 195.988 135.773C198.017 131.091 200.513 129.219 202.386 128.592L202.229 128.749Z" fill="#B693FF"/>
<path d="M115.607 213.031L114.048 211.938C114.048 211.938 114.518 213.654 114.204 215.061C113.891 216.467 108.899 218.493 108.899 218.493C108.899 218.493 111.865 222.395 112.488 222.551C113.111 222.708 113.581 222.708 116.077 221.772C118.42 220.835 122.475 219.742 123.258 219.276C124.038 218.806 123.881 218.496 123.881 218.496C123.881 218.496 124.974 217.716 124.661 216.31C124.348 214.904 123.255 212.408 123.255 212.408L115.607 213.031Z" fill="#FFC0D1"/>
<path d="M115.606 213.031L114.047 211.938C114.047 211.938 114.517 213.654 114.203 215.061V215.217C115.61 215.997 117.326 216.623 119.042 216.933C121.071 217.403 122.944 217.403 124.66 216.933C124.66 216.777 124.66 216.463 124.66 216.154C124.347 214.747 123.254 212.251 123.254 212.251L115.606 212.875V213.031Z" fill="#F49FBC"/>
<path d="M102.235 221.765C102.235 221.765 103.328 218.642 106.761 217.083C110.193 215.524 113.315 218.799 114.095 219.735C114.874 220.515 114.565 221.142 116.437 220.985C117.844 220.828 122.212 219.112 123.928 218.333C123.928 218.333 124.551 217.863 124.708 216.926C125.021 217.24 125.331 217.55 125.488 217.863C125.801 218.333 125.488 218.799 125.488 218.799C125.488 218.799 118.307 221.765 112.845 223.951C107.227 225.98 101.296 224.887 102.232 221.921V221.765H102.235Z" fill="#4F29C2"/>
<path d="M128.251 219.742L126.691 218.649C126.691 218.649 127.161 220.365 126.848 221.772C126.535 223.178 121.543 225.204 121.543 225.204C121.543 225.204 124.509 229.106 125.132 229.263C125.755 229.419 126.225 229.419 128.721 228.483C131.063 227.546 135.118 226.453 135.902 225.987C136.681 225.517 136.525 225.207 136.525 225.207C136.525 225.207 137.618 224.427 137.304 223.021C136.991 221.615 135.898 219.119 135.898 219.119L128.251 219.742Z" fill="#FFC0D1"/>
<path d="M128.249 219.742L126.689 218.649C126.689 218.649 127.159 220.365 126.846 221.772C126.846 221.928 126.689 222.085 126.689 222.242C130.435 223.801 134.024 224.114 137.303 223.021C136.989 221.615 135.896 219.119 135.896 219.119L128.249 219.742Z" fill="#F49FBC"/>
<path d="M126.378 93.007C126.378 93.007 128.094 91.1343 128.874 89.5748C129.653 88.1686 127.781 87.079 127.624 86.9224C127.624 86.6091 127.781 84.5798 127.001 84.1133C126.378 83.4902 124.658 82.8637 124.349 82.8637C123.879 82.8637 123.412 83.3336 123.412 83.3336C122.476 83.0203 122.006 83.0203 121.383 83.8035C121.383 83.8035 120.133 83.8035 119.977 84.1167C119.82 84.43 119.354 86.6126 119.354 87.3957C119.354 88.1754 120.133 88.8019 120.133 88.8019C119.354 90.8313 120.603 93.0172 121.693 94.4201L126.375 93.3271V93.007H126.378Z" fill="#F49FBC"/>
<path d="M124.349 82.8637C123.879 82.8637 123.412 83.3336 123.412 83.3336C122.476 83.0203 122.006 83.0203 121.383 83.8035C121.383 83.8035 120.133 83.8035 119.977 84.1167C119.82 84.43 119.354 86.6126 119.354 87.3957C119.354 88.1754 120.133 88.8019 120.133 88.8019C120.603 88.6453 120.29 88.0222 120.133 87.2425C120.133 87.2425 119.977 86.4627 119.977 86.3061C119.977 85.9928 120.446 84.8999 120.446 84.59C120.603 84.4334 121.383 83.9669 121.383 83.9669C120.76 85.2165 120.76 85.2165 120.603 86.776C120.603 87.2459 120.76 88.4921 120.916 88.6487C121.073 88.8053 121.539 88.8053 121.853 88.6487C122.009 88.4921 120.916 86.1529 121.853 84.59C122.166 84.1201 123.412 83.497 123.412 83.497C123.256 83.6537 122.227 84.9101 122.227 85.5366C122.227 85.6932 122.329 85.8669 122.329 86.0235C122.953 85.0769 124.349 82.8637 124.349 82.8637Z" fill="#FFC0D1"/>
<path d="M126.22 93.007L123.097 93.7868C122.941 93.1637 122.784 92.0707 123.254 90.8211C123.877 89.105 124.97 88.7917 124.97 88.6351C124.97 88.3218 123.564 87.0756 123.564 86.4491C123.564 85.6694 123.877 84.733 124.813 85.3561C125.75 85.9792 127.623 86.9156 127.623 86.9156C127.779 87.0722 129.652 88.1652 128.872 89.568C128.092 91.1275 126.376 93.0002 126.376 93.0002H126.22V93.007ZM126.846 85.5162C125.287 84.4232 123.101 84.2666 123.414 86.2959C123.571 87.2323 124.507 88.7917 122.944 88.3252C122.008 88.012 122.008 85.5162 122.008 85.5162C122.008 85.5162 123.257 82.8637 124.504 82.7071C124.817 82.7071 126.533 83.3302 127.156 83.9567C127.469 84.27 127.626 85.2063 127.626 85.9861C127.626 85.9861 126.999 85.6728 126.846 85.5162Z" fill="#FFC0D1"/>
<path d="M128.406 221.615L127.157 221.145C126.377 220.832 126.534 220.365 126.064 218.649L124.348 213.031C123.255 213.811 121.539 214.747 119.666 214.747C116.387 214.747 114.048 213.188 114.048 213.188C114.048 213.188 101.249 178.069 101.092 173.701C100.779 167.613 104.371 163.244 112.642 162.618C120.912 161.994 135.897 159.652 135.897 159.652L146.354 156.999C153.378 158.092 156.497 159.495 157.59 161.215L157.903 161.058L163.365 162.464C163.365 162.464 164.301 174.014 157.747 179.166C151.192 184.317 132.305 186.813 131.682 187.436C130.902 188.059 131.369 188.529 130.902 188.996C130.589 189.466 130.279 189.619 130.279 190.089C130.436 190.559 136.677 218.649 137.46 219.899C138.553 221.458 134.028 223.488 128.72 221.772L128.406 221.615Z" fill="#444DEC"/>
<path d="M133.71 159.495C135.269 160.745 136.988 161.991 140.734 163.397C144.479 164.957 149.941 165.427 153.69 165.427C153.533 165.897 153.22 166.206 152.91 166.52C150.567 169.016 150.101 171.358 150.101 171.981C147.605 172.918 144.483 174.011 141.36 175.104C134.336 177.599 127.468 179.942 126.689 181.501C125.596 183.844 127.002 185.247 126.065 186.806C124.972 188.522 126.379 190.239 126.379 191.175C126.379 191.955 131.374 211.778 134.026 221.765C134.183 221.765 134.496 221.608 134.649 221.608C132.153 211.618 127.002 191.955 127.002 191.175C127.002 190.082 125.752 188.522 126.689 187.116C127.782 185.4 126.375 183.837 127.312 181.811C127.935 180.562 134.646 178.222 141.514 175.723C145.259 174.474 149.005 173.227 151.814 171.978C155.559 170.418 157.432 167.762 158.211 165.267C159.461 165.267 160.084 165.11 160.084 165.11C160.084 165.11 160.864 170.105 159.928 173.537C159.148 176.969 154.776 180.718 148.535 180.562C142.293 180.405 134.019 180.405 131.524 183.841C129.181 187.273 130.9 187.273 128.871 190.085C126.842 193.051 129.807 196.173 132.46 204.444C135.112 212.405 135.739 214.9 135.739 215.057C133.71 206.787 129.964 190.242 129.964 189.929C129.964 189.459 130.277 189.306 130.587 188.836C131.057 188.366 130.587 187.899 131.367 187.276C131.99 186.653 150.877 184.154 157.432 179.006C163.986 173.854 163.05 162.304 163.05 162.304L157.588 160.898L157.275 161.055C156.182 159.339 153.06 157.932 146.039 156.839L135.582 159.492L133.866 159.805L133.71 159.495ZM157.435 165.583C156.655 167.926 154.939 170.265 151.504 171.671C151.347 171.671 151.034 171.828 150.724 171.985C151.347 169.019 153.067 167.926 154.469 165.74C155.719 165.74 156.655 165.583 157.592 165.583H157.435Z" fill="#3A49D1"/>
<path d="M140.892 162.618H140.735H140.578C139.799 162.931 139.329 163.867 139.019 164.96C138.862 165.273 138.706 165.583 138.549 166.053C138.392 165.583 138.236 164.96 138.079 164.494C137.456 163.087 137.456 162.464 138.392 161.528C138.236 161.371 138.079 161.371 137.922 161.215C137.453 161.685 137.143 162.151 137.143 162.464C136.673 164.18 138.392 165.43 137.922 167.146C137.766 167.303 137.453 167.616 137.299 167.616L137.613 168.086C138.706 167.463 139.172 166.213 139.642 165.12C139.955 164.184 140.265 163.404 140.892 163.091C141.048 163.091 141.205 162.934 141.515 162.778C141.515 162.778 141.515 162.778 141.358 162.778C141.205 162.774 141.048 162.618 140.892 162.618Z" fill="#3A49D1"/>
<path d="M118.107 214.591C120.602 214.904 122.322 214.277 124.195 213.031C121.229 203.354 116.547 187.903 115.141 184.314C113.112 179.009 117.637 175.73 121.229 174.171C123.102 173.391 129.656 170.892 137.774 168.083C138.087 167.926 138.397 167.303 138.71 167.146C135.901 167.303 137.617 166.676 133.872 165.74C130.126 164.96 123.881 168.706 119.2 168.862C114.518 169.019 107.963 169.485 107.807 175.573C107.65 181.661 111.239 187.436 113.738 193.677C116.081 199.922 114.361 201.948 115.298 206.163C115.767 208.036 117.014 211.468 118.263 214.591H118.107Z" fill="#3A49D1"/>
<path d="M158.684 80.5211L159.307 78.0253C159.307 78.0253 158.37 76.1526 157.747 74.2799C156.654 71.3142 155.718 72.4071 154.625 72.4071C154.155 72.4071 153.219 72.2505 152.909 72.5638C151.036 73.6568 151.036 72.877 150.566 73.3435C150.253 73.6568 149.786 74.4365 149.473 75.0596C149.16 75.5295 149.16 76.1526 149.473 77.2456C149.786 78.3386 151.816 79.2749 152.126 79.5882C154.158 81.7707 154.002 82.5505 158.684 80.5211Z" fill="#F49FBC"/>
<path d="M158.684 80.2113L159.307 78.0253C159.307 78.0253 158.371 76.1526 157.748 74.2799C156.655 71.3142 155.719 72.4071 154.626 72.4071C154.156 72.4071 153.219 72.2505 152.91 72.5638C151.037 73.6568 151.037 72.877 150.567 73.3435C150.097 73.8134 149.317 74.903 149.317 75.6861C149.787 75.8427 150.567 75.8427 150.724 75.5295C151.037 75.2162 151.037 74.5931 151.347 74.1232C151.66 73.6534 151.97 73.1869 151.97 73.1869C151.97 73.1869 151.5 74.903 151.5 75.2162C151.343 75.5295 152.123 75.8393 152.906 75.6861C153.843 75.5295 153.529 74.2799 154.622 72.5638C154.309 74.4365 153.686 75.5295 154.936 75.6861C155.715 75.8427 155.405 74.7498 156.495 73.6568C156.182 74.7498 156.652 74.5931 156.495 75.2162C156.338 75.6861 154.779 75.6861 157.745 80.2113C157.745 80.2113 158.214 80.2113 158.994 80.0546L158.684 80.2113Z" fill="#FFC0D1"/>
<path d="M153.377 75.9959C155.093 75.6827 155.093 77.712 152.597 77.712C151.818 77.712 151.504 77.712 151.504 77.712C153.064 78.3351 154.313 78.0253 155.25 79.5847C156.03 80.991 155.008 81.1714 153.915 81.4847C153.915 81.4847 151.814 79.898 151.348 79.7414C150.878 79.5847 149.632 79.2715 149.162 78.0253C148.539 76.7757 149.785 76.1526 149.785 76.1526C149.785 76.1526 152.284 76.3092 153.377 75.9959Z" fill="#FFC0D1"/>
<path d="M150.568 122.507C148.539 123.444 147.136 124.067 144.324 124.85C144.324 124.85 131.681 113.3 131.524 112.051C131.368 110.801 130.275 110.178 130.118 109.555C129.962 108.932 129.338 96.2894 129.182 95.5096C129.025 94.7299 127.776 94.1034 127.776 94.1034L127.306 92.3873C126.056 92.0741 121.688 92.5439 120.281 93.6369L120.438 94.5733C120.438 94.5733 119.032 95.353 118.722 96.9159C118.409 98.4754 117.162 109.715 118.565 115.02C120.125 120.325 122.934 122.511 122.934 122.511L137.449 137.026C137.292 140.615 136.979 144.987 136.356 147.953C135.106 153.414 136.669 155.443 136.669 155.443L135.576 159.659C135.576 159.659 137.136 162.155 146.969 163.717C156.803 165.277 163.357 163.874 163.514 163.874C163.67 163.874 163.514 159.506 163.514 159.506C163.514 159.506 166.323 158.726 166.636 152.324C166.949 145.927 167.416 137.809 167.573 137.343C167.729 136.876 173.817 124.857 176.779 115.65C179.902 106.596 178.652 104.567 177.093 100.355C175.533 96.143 166.323 82.0942 164.294 80.8446C162.108 79.595 160.235 79.595 160.235 79.595L159.299 78.1887L153.68 81.4677L154.617 83.0271C154.617 83.0271 153.837 85.0565 154.46 87.3957C155.083 89.7383 165.073 105.19 165.073 106.279C165.073 107.372 163.514 107.529 164.294 109.868C165.073 112.364 156.803 123.914 156.803 123.914L150.715 122.664L150.568 122.507Z" fill="#BDE9FF"/>
<path d="M127.782 94.1L123.413 94.2566C123.413 94.2566 121.384 107.366 124.506 110.645C127.629 113.924 130.438 123.287 133.56 124.067C136.683 124.847 141.678 127.033 140.115 129.685C138.552 132.337 137.619 137.489 137.619 137.019L137.462 136.863L122.947 122.347C122.947 122.347 120.138 120.161 118.578 114.857C117.172 109.552 118.422 98.3119 118.735 96.7525C119.048 95.193 120.451 94.4099 120.451 94.4099L120.295 93.4735C121.701 92.3805 126.069 91.914 127.319 92.2239L127.789 93.94V94.1H127.782ZM136.832 155.437C145.103 161.055 158.059 160.118 158.995 159.339C159.931 158.559 161.181 155.437 161.491 149.039C161.804 142.641 158.838 139.362 160.241 133.744C161.644 128.126 168.202 122.038 166.952 115.17C165.703 108.302 169.295 105.026 169.448 102.684C169.605 100.188 166.483 94.5665 163.517 90.8211C160.551 87.0756 158.365 81.1442 158.365 81.1442L154.776 82.8603L153.877 81.3519L159.458 78.0219L160.395 79.4281C160.395 79.4281 162.267 79.4281 164.453 80.6777C166.483 81.9273 175.69 95.9727 177.252 100.188C178.815 104.403 180.061 106.433 176.939 115.483C173.973 124.69 167.885 136.709 167.732 137.176C167.579 137.642 167.109 145.76 166.796 152.158C166.483 158.556 163.673 159.339 163.673 159.339C163.673 159.339 163.83 163.707 163.673 163.707C163.517 163.707 156.962 165.113 147.129 163.551C137.295 161.991 135.736 159.492 135.736 159.492L136.829 155.277V155.437H136.832Z" fill="#A1D5FF"/>
<path d="M143.236 105.183C143.236 105.183 142.3 117.512 142.456 120.635C142.613 123.914 146.825 124.067 150.574 121.884C154.162 119.855 156.505 118.452 156.505 118.452L159.314 112.677C159.314 112.677 151.353 104.717 143.239 105.03V105.183H143.236Z" fill="#FFC0D1"/>
<path d="M143.858 102.061C143.858 102.061 145.265 102.84 151.039 102.684C156.657 102.527 159.936 105.336 160.246 109.238C160.246 109.395 160.246 109.552 160.246 109.708C160.246 109.865 160.246 110.021 160.246 110.331C160.246 111.581 160.246 112.984 159.31 115.949C158.374 118.915 156.967 120.945 156.344 121.411C155.721 121.881 154.938 121.724 154.938 121.724C154.938 121.724 155.251 121.254 155.718 120.475V117.666C155.718 117.666 157.904 117.042 157.747 113.763C157.59 110.485 155.095 110.954 154.315 112.514C153.535 114.073 153.692 115.636 153.692 115.636L152.132 114.7V112.514C152.132 112.514 152.446 109.392 149.01 109.392C145.574 109.392 144.951 110.641 142.142 109.392C139.333 108.142 139.8 101.121 144.015 102.057H143.858V102.061Z" fill="#85146C"/>
<path d="M159.932 114.233C159.776 114.703 159.619 115.326 159.462 115.95C158.526 118.915 157.12 120.945 156.497 121.411C155.874 121.881 155.091 121.724 155.091 121.724C155.091 121.724 155.404 121.254 155.87 120.475V117.666C155.87 117.666 158.056 117.043 157.9 113.764C157.743 110.485 155.247 110.954 154.467 112.514C153.688 114.073 153.844 115.636 153.844 115.636L152.285 114.7V112.514C152.285 112.514 152.598 109.392 149.163 109.392C145.727 109.392 145.104 110.641 142.295 109.392C141.982 109.235 141.672 108.922 141.358 108.612C144.791 109.705 150.722 107.519 153.221 107.519C157.28 107.362 158.839 109.235 159.153 109.705C159.932 110.798 160.246 112.201 160.089 114.23H159.932V114.233Z" fill="#6E0E59"/>
<path d="M151.971 118.292L155.717 117.669V121.728C155.717 121.728 155.717 122.507 156.187 122.977C156.5 123.6 156.657 123.6 156.657 123.6C156.657 123.6 156.343 126.566 153.224 128.752C150.102 130.938 148.229 130.781 147.136 130.002C146.043 129.379 147.45 127.036 147.45 125.786C147.45 124.537 146.67 119.698 146.67 119.698L151.975 118.139V118.292H151.971Z" fill="#FFC0D1"/>
<path d="M149.475 122.507C152.441 120.791 155.719 117.669 155.719 117.669V118.919V119.542C155.25 120.635 154.47 121.884 153.377 122.974C152.754 123.754 151.971 124.38 151.191 124.69C149.631 125.626 148.225 125.47 147.289 125.16C147.289 124.69 147.132 124.224 147.132 123.754C147.132 123.597 147.132 123.284 146.976 123.131C147.755 122.974 148.535 122.817 149.318 122.351L149.475 122.507Z" fill="#F49FBC"/>
<path d="M114.886 228.326C114.886 228.326 115.979 225.204 119.411 223.644C122.843 222.085 125.965 225.36 126.745 226.297C127.525 227.077 127.215 227.703 129.088 227.546C130.494 227.39 134.863 225.674 136.579 224.894C136.579 224.894 137.202 224.424 137.358 223.488C137.672 223.801 137.981 224.111 138.138 224.424C138.451 224.894 138.138 225.36 138.138 225.36C138.138 225.36 130.957 228.326 125.496 230.512C119.877 232.541 113.946 231.448 114.882 228.483V228.326H114.886Z" fill="#4F29C2"/>
<path d="M156.966 123.444C157.436 123.757 156.966 127.502 153.377 129.998C151.191 131.558 146.666 132.494 146.353 130.155C146.196 129.532 146.666 128.439 147.133 127.346C147.133 127.346 146.819 128.905 148.539 129.219C150.412 129.375 153.221 127.659 154.47 125.94C155.72 124.224 155.72 122.661 155.72 122.661C156.19 122.347 156.19 122.974 156.656 123.284L156.966 123.444Z" fill="#A1D5FF"/>
<path d="M149.527 214.305C150.229 215.255 151.659 216.15 152.595 216.307C153.532 216.463 151.659 217.713 150.723 219.429C149.943 219.742 149.63 220.052 148.227 220.522C146.821 221.145 139.643 220.679 138.393 219.272C137.457 218.336 136.677 215.84 135.897 214.747C137.614 215.061 139.956 216.154 143.078 215.997L149.527 214.305Z" fill="#FFC0D1"/>
<path d="M138.24 215.684C139.02 216.777 138.863 218.493 139.799 219.429C141.206 220.835 146.824 221.145 148.227 220.522C149.633 219.899 149.943 219.742 150.722 219.429C150.722 219.586 151.036 218.806 150.566 219.742C150.096 220.679 148.85 222.865 148.536 223.021C148.223 223.178 146.194 223.335 145.884 223.178C145.571 223.178 145.104 221.618 143.855 221.928C142.605 222.242 144.168 223.021 139.953 222.242C135.737 221.462 132.305 219.433 129.653 217.403C127 215.217 128.56 213.814 130.589 213.971C132.618 214.128 135.114 214.441 136.677 214.751C138.396 215.061 137.927 215.214 138.24 215.684Z" fill="#0B2EA4"/>
<path d="M197.547 179.006L221.739 172.295L212.375 167.769C212.375 167.769 194.894 170.265 185.061 170.892C175.227 171.518 174.291 176.667 172.575 180.569C170.859 184.471 170.702 222.708 170.702 222.708C172.575 223.331 174.917 222.708 176.634 221.772C176.634 221.772 177.727 212.095 178.663 203.511C179.443 194.927 181.315 186.343 181.785 185.717C182.255 185.094 197.703 179.006 197.703 179.006H197.547Z" fill="#7CBBFF"/>
<path d="M226.891 163.088L230.949 169.642C230.949 169.642 231.572 181.348 223.768 185.56C215.964 189.775 205.821 188.369 199.733 188.369C193.488 188.526 191.616 188.369 190.526 189.306C189.433 190.242 190.213 190.242 188.653 190.555C187.094 191.025 176.79 201.482 166.177 208.349C155.564 215.217 152.755 217.09 152.755 217.09C152.755 217.09 151.819 217.09 150.726 216.31C149.633 215.53 149.319 214.281 149.319 214.281C149.319 214.281 177.727 184.627 181.002 182.285C184.281 179.789 184.434 179.006 187.557 178.069C190.679 177.133 214.558 169.172 214.558 169.172L226.891 163.088Z" fill="#A1D5FF"/>
<path d="M168.358 226.501C171.636 224.005 170.7 222.708 170.7 222.708C172.416 223.331 174.602 222.708 176.318 221.928C176.318 221.928 176.318 223.644 176.475 225.517C176.005 226.297 175.539 227.077 175.069 227.86C173.819 229.576 166.798 232.855 164.925 232.385C163.676 232.072 162.739 230.669 161.493 230.042C163.053 229.419 165.239 228.326 167.111 227.077L168.358 226.501Z" fill="#FFC0D1"/>
<path d="M167.485 226.784C170.764 224.288 170.703 222.705 170.703 222.705C172.419 223.328 174.605 222.705 176.321 221.925C176.321 221.925 176.321 222.238 176.321 222.861C175.071 223.954 173.198 225.357 170.703 226.607C169.296 227.386 167.737 227.543 166.334 227.543C166.647 227.386 166.804 227.23 167.114 227.073L167.485 226.784Z" fill="#F49FBC"/>
<path d="M164.315 228.735C165.408 229.515 166.031 230.608 167.28 230.921C169.153 231.391 174.148 228.735 175.085 227.489C176.021 226.242 176.144 225.912 176.457 225.132C176.457 225.289 176.78 225.435 176.78 225.592C177.094 227.621 176.804 229.051 176.491 229.361C176.334 229.675 173.369 230.921 173.212 231.077C172.899 231.234 172.432 229.828 171.496 230.764C170.559 231.7 171.496 232.014 168.843 233.107C164.941 234.823 162.132 234.666 158.7 234.356C155.268 234.043 155.734 232.014 157.607 230.924C159.48 229.831 160.416 229.208 161.976 228.582C163.535 227.958 163.712 228.285 164.179 228.599L164.315 228.735Z" fill="#0B2EA4"/>
<path d="M227.048 159.495L235.009 154.814C235.009 154.814 232.666 161.211 231.886 165.897C231.107 170.578 230.95 174.48 230.95 174.48C230.95 174.48 225.332 175.104 221.743 173.388C217.998 171.671 215.498 169.955 212.379 169.172C209.257 168.392 206.918 168.549 206.918 168.549L210.82 161.995L227.048 159.495Z" fill="#E02BB9"/>
<path d="M217.837 158.249C217.837 158.249 211.283 157.779 207.067 154.034C203.009 150.288 205.351 142.328 208.784 139.205C212.216 136.083 212.842 135.303 212.372 130.621C211.902 125.94 215.181 123.131 215.181 123.131C215.181 123.131 215.338 117.979 217.834 115.013C220.33 111.891 230.633 111.111 234.065 117.199C237.497 123.287 236.718 127.656 239.217 129.998C241.869 132.341 247.334 133.744 247.334 138.739C247.334 143.734 246.241 143.421 248.271 147.479C252.173 155.44 241.403 160.745 232.506 160.122C224.858 159.652 220.8 158.249 217.834 158.406V158.249H217.837Z" fill="#85146C"/>
<path d="M227.828 134.993C227.985 135.15 228.921 135.15 229.857 135.307C230.549 135.674 233.136 136.243 233.136 136.243C233.136 136.243 237.662 136.243 239.534 138.116C241.25 139.988 245.149 147.023 245.149 147.023L244.216 147.483L243.903 154.974L236.722 149.979L231.57 166.21C231.57 166.21 227.202 167.926 219.864 166.523C212.53 164.964 211.28 164.494 211.28 164.494L210.344 163.401C210.344 163.401 212.84 157.469 212.216 155.44C211.123 151.851 210.344 151.381 210.5 147.013L205.195 146.233L205.039 141.865L204.726 140.928C204.726 140.928 208.158 137.806 210.97 136.87C213.779 135.933 218.304 135.463 219.241 135.31C220.021 135.153 222.207 135.623 222.207 135.623L226.888 137.339L227.825 135.31V134.993H227.828Z" fill="#FF26A5"/>
<path d="M239.535 152.474C239.692 151.225 239.535 150.132 239.378 149.665C238.599 147.323 237.972 145.607 236.569 145.297C235.32 144.984 234.383 144.047 234.383 144.047C234.383 144.047 234.227 144.827 233.29 145.453C232.511 145.923 232.354 145.61 231.574 149.199C230.951 152.788 226.893 154.974 223.77 153.567C220.648 152.161 220.025 152.474 216.746 152.788C213.467 153.101 210.658 150.602 210.658 150.602C210.814 152.008 211.438 153.097 212.064 155.283C212.687 157.313 210.191 163.244 210.191 163.244L211.128 164.337C211.128 164.337 212.377 164.807 219.712 166.367C227.046 167.773 231.806 166.029 231.806 166.029L236.723 149.979L239.845 152.321L239.535 152.474ZM210.661 146.7C210.974 145.293 211.284 144.984 212.221 143.577C213.157 142.171 214.563 139.052 214.563 139.052C214.563 139.052 212.847 140.612 210.348 141.238C207.696 141.861 205.666 144.67 205.666 144.67L205.196 144.357V145.916L210.501 146.696H210.661V146.7Z" fill="#E02BB9"/>
<path d="M200.671 156.686C202.7 158.246 204.573 160.118 205.196 160.432C206.446 160.745 208.628 160.275 209.255 160.745C209.878 161.215 210.814 161.838 211.597 161.838C212.377 161.838 212.067 163.554 210.348 163.244C208.632 162.931 206.289 163.867 206.132 164.337C205.819 164.807 209.098 167.146 209.098 167.146C209.098 167.146 205.819 167.46 204.73 167.303C203.48 167.146 202.234 164.494 201.297 164.181C200.518 163.867 194.743 162.464 193.027 161.685C191.777 161.062 190.374 159.342 190.684 157.783V157.626C190.841 156.846 191.621 154.66 193.65 152.944C195.992 150.915 205.043 141.551 205.043 141.551C206.759 144.047 208.008 145.14 210.504 146.856L200.671 156.846V156.686Z" fill="#FFC0D1"/>
<path d="M220.337 163.241C220.337 163.241 218.621 164.177 217.841 164.177C217.218 164.177 208.321 162.771 207.385 162.771C206.448 162.771 205.825 163.551 205.668 164.487C205.512 165.58 205.982 166.36 207.385 166.83C208.634 167.143 216.438 168.389 216.438 168.389C216.438 168.389 218.154 168.859 220.027 168.546C221.743 168.232 224.552 167.453 224.552 166.673C224.549 166.05 222.21 163.241 220.337 163.241Z" fill="#4F29C2"/>
<path d="M226.892 164.96C226.892 164.96 225.176 163.711 223.613 162.618C222.053 161.525 221.583 161.838 220.181 162.461C218.621 163.084 218.621 163.084 217.995 163.241C217.215 163.397 217.525 164.02 218.151 164.177C218.774 164.334 220.494 164.02 220.96 164.02C221.43 164.02 222.52 165.737 222.52 166.05C222.52 166.363 220.177 167.456 218.774 167.766C217.368 168.236 216.473 168.389 216.473 168.389C216.473 168.389 217.681 169.325 218.461 169.482C219.241 169.795 220.177 169.169 220.49 169.325C220.804 169.325 222.05 170.262 223.143 170.105C224.236 169.948 226.265 169.012 226.732 169.012C227.202 169.012 243.433 169.482 246.399 169.169C247.335 169.012 248.115 168.699 248.585 168.232C248.585 168.232 250.144 167.139 249.521 163.081C248.898 159.179 244.216 147.472 244.216 147.472C244.216 147.472 242.343 148.565 240.784 149.189C239.224 149.812 236.725 149.968 236.725 149.968L240.471 160.895C235.946 162.144 227.205 164.953 227.205 164.953H226.892V164.96Z" fill="#FFC0D1"/>
<path d="M238.861 149.689C237.622 149.87 236.72 149.979 236.72 149.979L240.271 160.949L242.651 160.592C242.651 160.592 242.028 159.499 242.028 157.16C242.028 154.974 241.248 154.194 239.999 150.135L239.76 149.526L238.861 149.689Z" fill="#F49FBC"/>
<path d="M220.801 117.512C220.801 117.512 221.424 120.478 223.61 122.038C227.199 124.69 226.263 122.351 227.512 126.406C227.982 125.47 227.982 124.064 229.229 124.064C231.724 124.22 229.852 129.059 228.136 128.589C228.136 128.589 227.979 131.554 228.136 132.957C228.292 134.36 229.852 135.3 229.852 135.3C229.852 135.3 229.229 138.579 225.013 138.889C223.454 139.045 221.734 138.889 220.488 137.796C219.552 137.016 219.238 135.3 219.238 135.3L221.581 133.894L221.738 132.487C220.178 132.487 217.679 132.174 217.056 130.928C216.586 129.992 217.836 119.535 217.836 119.535C217.836 119.535 219.681 119.143 220.471 117.979L220.801 117.512Z" fill="#FFC0D1"/>
<path d="M225.018 131.558C226.891 130.308 228.14 128.592 228.14 128.592C228.14 128.592 228.127 129.348 228.083 130.209C226.676 132.705 223.854 135.691 221.201 134.129L221.586 133.897L221.743 132.491C222.832 132.494 223.768 132.338 225.018 131.558Z" fill="#F49FBC"/>
<path d="M207.361 144.377C208.297 145.157 209.257 146.073 210.503 146.856L200.769 156.758C199.832 155.978 198.64 155.44 197.704 155.13C198.327 154.507 199.11 153.724 200.2 152.944C203.479 150.602 203.789 149.042 204.568 147.326C204.882 146.546 205.975 145.453 207.221 144.517L207.361 144.377Z" fill="#F49FBC"/>
<path d="M180.838 248.286C191.033 251.643 216.438 256.006 216.438 238.554C216.438 221.943 201.898 223.118 199.725 197.781C197.552 172.781 212.595 166.237 212.759 166.237L212.592 166.068C213.427 165.732 212.759 164.557 212.089 164.893C212.089 164.893 196.046 171.939 198.383 197.778C200.556 223.447 215.097 222.441 215.097 238.382C215.097 254.992 189.695 249.622 180.835 246.771C169.47 243.081 150.416 236.874 132.536 255.497C123.891 264.52 109.748 267.902 96.3271 269.516C98.245 269.996 100.17 270.453 102.106 270.889C114.539 268.111 126.691 263.667 133.539 256.507C150.923 238.221 169.642 244.597 180.838 248.286Z" fill="#4F29C2"/>
<path d="M109.366 159.339C109.366 159.339 109.989 159.182 110.616 159.652C111.239 160.122 111.865 160.122 112.489 159.809C112.958 159.495 113.112 159.339 113.268 159.185C113.425 159.185 113.581 158.872 114.205 159.655C114.828 160.438 115.298 161.062 115.454 161.215C115.611 161.371 116.547 161.838 117.797 161.058C119.203 160.278 118.267 158.716 117.797 157.469C117.327 156.22 116.237 153.411 115.924 152.788C115.611 152.164 114.518 151.381 113.272 151.695C111.865 152.008 110.929 152.164 110.929 152.164C110.929 152.164 110.616 152.164 110.306 152.478C109.993 152.791 109.683 152.948 109.213 152.948C108.743 153.104 108.12 153.261 108.12 153.261C108.12 153.261 107.497 153.417 107.027 153.574C106.557 153.731 106.247 153.731 105.777 153.574C105.307 153.417 104.998 153.574 104.998 153.574C104.998 153.574 104.061 153.731 102.655 154.044C101.249 154.357 100.782 155.45 100.626 156.23C100.469 156.853 100.782 159.975 100.939 161.225C101.096 162.631 100.939 164.347 102.498 164.504C104.058 164.661 104.684 163.881 104.684 163.568C104.841 163.254 104.998 162.631 105.154 161.695C105.311 160.759 105.777 160.915 105.934 160.915C106.091 160.915 106.247 161.072 106.87 161.072C107.493 161.072 107.963 160.759 108.43 160.135C108.74 159.495 109.366 159.339 109.366 159.339Z" fill="#4F29C2"/>
<path d="M111.43 157.231C110.814 157.371 110.429 157.98 110.569 158.596C110.708 159.213 111.318 159.597 111.934 159.458C112.55 159.318 112.935 158.709 112.795 158.092C112.656 157.476 112.046 157.091 111.43 157.231Z" fill="#6995FF"/>
<path d="M112.842 152.437C111.555 152.726 110.748 154.003 111.037 155.29C111.327 156.577 112.604 157.384 113.891 157.095C115.178 156.805 115.985 155.529 115.695 154.242C115.406 152.954 114.129 152.147 112.842 152.437Z" fill="#6995FF"/>
<path d="M114.358 155.75C114.515 156.063 114.202 156.373 113.888 156.53C113.575 156.686 113.265 156.373 113.109 156.06C112.952 155.746 113.265 155.437 113.578 155.28C113.892 155.127 114.205 155.437 114.358 155.75ZM112.176 154.347C112.489 154.19 112.799 154.504 112.955 154.817C113.112 155.13 112.799 155.44 112.485 155.597C112.172 155.753 111.862 155.44 111.706 155.127C111.549 154.814 111.862 154.5 112.176 154.347ZM113.892 153.411C114.048 153.724 113.735 154.034 113.422 154.19C113.109 154.347 112.799 154.034 112.642 153.721C112.485 153.407 112.799 153.097 113.112 152.941C113.422 152.784 113.735 153.097 113.892 153.411ZM114.515 153.877C114.828 153.721 115.138 154.034 115.295 154.347C115.451 154.66 115.138 154.97 114.825 155.127C114.511 155.283 114.202 154.97 114.045 154.657C113.892 154.347 114.205 154.034 114.515 153.877Z" fill="#4F29C2"/>
<path d="M106.556 158.327C107.172 158.188 107.782 158.576 107.921 159.189C108.061 159.805 107.673 160.415 107.06 160.554C106.444 160.694 105.834 160.306 105.694 159.693C105.555 159.077 105.943 158.467 106.556 158.327Z" fill="#6995FF"/>
<path d="M103.224 154.602C104.511 154.313 105.788 155.12 106.077 156.407C106.367 157.694 105.56 158.971 104.272 159.26C102.985 159.55 101.709 158.743 101.419 157.456C101.13 156.169 101.937 154.892 103.224 154.602Z" fill="#6995FF"/>
<path d="M103.434 158.249C103.591 158.562 103.904 158.872 104.214 158.719C104.527 158.562 104.837 158.249 104.684 157.939C104.527 157.626 104.214 157.316 103.904 157.469C103.591 157.623 103.277 157.936 103.434 158.249ZM104.837 156.063C104.524 156.22 104.214 156.533 104.367 156.843C104.524 157.156 104.837 157.466 105.147 157.313C105.46 157.156 105.77 156.843 105.617 156.533C105.463 156.22 105.15 155.907 104.837 156.063ZM102.964 155.907C103.121 156.22 103.434 156.53 103.744 156.376C104.057 156.22 104.367 155.907 104.214 155.597C104.057 155.283 103.744 154.974 103.434 155.127C103.121 155.283 102.807 155.593 102.964 155.907ZM102.498 156.53C102.184 156.686 101.874 157 102.028 157.309C102.184 157.623 102.498 157.932 102.807 157.779C103.121 157.623 103.431 157.309 103.277 157C103.121 156.686 102.807 156.373 102.498 156.53Z" fill="#4F29C2"/>
<path d="M148.546 18.3605C139.091 12.1465 126.121 14.5777 119.635 24.3056C113.421 33.7611 115.852 46.7305 125.58 53.2169C135.036 59.4309 148.005 56.9998 154.491 47.2719C160.705 37.8164 158.274 24.847 148.546 18.3605Z" fill="url(#paint7_linear)"/>
<path d="M140.494 30.019C138.151 28.4698 134.998 29.1167 133.452 31.4559C131.903 33.7985 132.55 36.9515 134.893 38.4973C137.235 40.0432 140.388 39.3997 141.934 37.0605C143.48 34.7213 142.836 31.5683 140.494 30.019Z" fill="#FA66A0"/>
<path d="M140.167 31.33C138.005 29.7092 134.763 30.5196 133.412 32.6817C133.143 33.2231 132.87 33.4921 132.87 34.0335C132.87 33.2231 133.139 32.4127 133.68 31.6024C135.301 29.4402 138.274 28.6299 140.436 30.2506C142.329 31.6024 143.139 33.7645 142.329 35.9232C142.329 34.3025 141.519 32.4093 140.167 31.599V31.33Z" fill="#FB33A0"/>
<path d="M127.633 40.5199C126.186 39.5631 124.239 39.9615 123.282 41.4086C122.325 42.8557 122.723 44.8033 124.17 45.7601C125.618 46.7169 127.565 46.3185 128.522 44.8714C129.479 43.4243 129.08 41.4767 127.633 40.5199Z" fill="#FB4CA0"/>
<path d="M127.472 41.3269C126.12 40.5165 124.231 40.7855 123.148 42.1372C122.879 42.4062 122.879 42.6786 122.879 42.9476C122.879 42.4062 123.148 41.8682 123.42 41.3269C124.231 39.9751 126.393 39.4371 127.745 40.5165C128.824 41.3269 129.365 42.6786 129.096 44.0304C129.096 42.951 128.555 41.8682 127.745 41.3269H127.472Z" fill="#FC1EA0"/>
<path d="M148.715 38.0105C146.985 37.9049 145.497 39.226 145.392 40.9557C145.286 42.6854 146.607 44.1768 148.337 44.2789C150.067 44.3845 151.555 43.0634 151.66 41.3337C151.762 39.604 150.445 38.1126 148.715 38.0105Z" fill="#FB4CA0"/>
<path d="M149.087 38.8957C147.466 38.8957 145.845 39.9751 145.845 41.8682C145.845 42.1372 145.845 42.4096 145.845 42.6786C145.576 42.1372 145.576 41.5993 145.576 41.0579C145.576 39.4371 147.197 38.0854 148.818 38.0854C150.169 38.0854 151.249 39.1647 151.521 40.5165C150.98 39.7061 150.169 38.8957 149.087 38.8957Z" fill="#FC1EA0"/>
<path d="M125.809 26.4439C124.359 25.4871 122.408 25.8855 121.448 27.336C120.491 28.7865 120.889 30.7376 122.34 31.6977C123.79 32.6545 125.741 32.2562 126.701 30.8057C127.658 29.3551 127.26 27.4007 125.809 26.4439Z" fill="#FA66A0"/>
<path d="M125.578 27.2781C124.226 26.4677 122.336 26.7367 121.253 28.0885C120.984 28.3575 120.984 28.6299 120.984 28.8989C120.984 28.3575 121.253 27.8195 121.526 27.2781C122.336 25.9264 124.498 25.3884 125.85 26.4677C126.929 27.2781 127.471 28.6299 127.202 29.9816C127.202 28.9023 126.66 27.8195 125.85 27.2781H125.578Z" fill="#FB3CA0"/>
<path d="M142.996 17.2744C141.127 16.0384 138.61 16.5525 137.374 18.4218C136.138 20.2912 136.653 22.8074 138.522 24.0434C140.391 25.2794 142.907 24.7653 144.143 22.8959C145.379 21.0266 144.865 18.5104 142.996 17.2744Z" fill="#FA7CA0"/>
<path d="M142.871 18.3605C140.981 17.2812 138.547 17.5502 137.467 19.4399C137.198 19.7089 137.198 20.2503 136.926 20.5193C136.926 19.7089 137.195 19.1675 137.467 18.6295C138.547 16.7398 141.25 16.1984 142.871 17.5502C144.492 18.6295 145.033 20.2537 144.492 22.1434C144.492 20.7917 143.95 19.4399 142.602 18.6295L142.871 18.3605Z" fill="#FA6BA0"/>
</g>
<path d="M23.0572 192.997C3.60482 202.05 -4.94498 225.023 4.10875 244.643C13.1625 264.095 36.1356 272.645 55.7549 263.591C75.2073 254.537 83.7571 231.564 74.7034 211.945C65.6462 192.493 42.6765 183.939 23.0572 192.997Z" fill="url(#paint8_linear)"/>
<path d="M23.0572 193.163C23.728 192.83 24.3988 192.659 25.0696 192.326C26.7448 194.171 28.4234 198.196 23.2241 204.733C10.3126 220.832 -8.4691 227.707 12.8288 256.546C2.43352 237.431 13.6664 224.853 28.2566 208.421C34.6272 201.379 35.1312 194.505 34.4604 189.81C34.9643 189.81 35.6351 189.643 36.1356 189.643C36.8064 194.672 36.3025 202.05 29.5947 209.429C14.3372 226.532 2.76721 239.443 17.1871 260.234C15.8456 259.229 14.504 258.222 13.1625 257.047C9.47494 253.693 6.28792 249.502 4.10875 244.639C-4.94498 225.02 3.60482 202.047 23.0572 192.993V193.163ZM38.4816 266.942C34.2901 262.917 30.9363 257.217 32.2778 250.005C33.9531 240.952 38.8187 237.598 45.1894 233.236C56.0886 225.858 67.8254 215.796 66.8209 200.538C67.3249 201.209 67.9957 201.713 68.4962 202.384C68.4962 207.917 66.9878 214.288 61.9553 220.662C48.8769 236.927 36.6361 235.752 33.7862 250.509C32.4447 257.721 36.4693 263.254 40.8276 267.108C39.99 267.108 39.1524 267.108 38.3114 267.108L38.4816 266.942ZM70.5085 242.797C74.3663 239.276 76.7123 234.077 78.2207 228.711C78.2207 231.057 78.0538 233.406 77.5499 235.586C76.2084 238.773 74.196 241.622 71.6798 243.968C66.1468 248.998 64.6384 253.863 64.6384 257.718C64.1344 258.222 63.4637 258.555 62.9632 259.059C62.6295 254.701 63.971 248.834 70.5085 242.797ZM18.0247 248.163C16.0124 222.34 36.3025 217.812 41.1647 203.896C43.5107 197.188 42.0023 192.326 38.9856 189.309C45.6933 189.309 52.2308 190.984 57.9341 194.171C59.9464 198.53 60.4503 203.729 57.9341 209.599C49.214 230.393 28.5903 228.044 26.4111 249.171C25.7403 256.55 28.9274 262.25 33.2857 266.611C29.0942 265.941 25.0696 264.766 21.382 262.754C19.7034 258.892 18.5287 254.2 18.0247 248.163ZM39.1524 254.871C39.99 241.626 51.3932 243.468 64.3047 229.215C72.1871 220.495 73.0247 210.77 68.4962 202.554C71.0124 205.237 73.0247 208.424 74.7 211.945C74.8668 212.279 74.8668 212.449 75.0337 212.783C77.5499 233.577 49.5477 250.846 59.7761 261.409C58.4346 262.246 57.093 262.917 55.5846 263.588C52.0639 265.263 48.373 266.271 44.6854 266.775C41.6686 265.1 38.6519 261.746 39.1524 254.871Z" fill="url(#paint9_linear)"/>
<path d="M244.994 259.696C255.079 259.696 263.255 251.52 263.255 241.435C263.255 231.35 255.079 223.175 244.994 223.175C234.909 223.175 226.733 231.35 226.733 241.435C226.733 251.52 234.909 259.696 244.994 259.696Z" fill="url(#paint10_linear)"/>
<path d="M244.838 244.401C247.251 244.401 249.207 242.445 249.207 240.032C249.207 237.62 247.251 235.664 244.838 235.664C242.426 235.664 240.47 237.62 240.47 240.032C240.47 242.445 242.426 244.401 244.838 244.401Z" fill="#71B3FF"/>
<path d="M245.152 236.597C242.81 236.597 240.784 238.626 240.784 240.965C240.784 241.435 240.784 241.745 240.94 242.215C240.627 241.592 240.317 240.809 240.317 240.029C240.317 237.686 242.347 235.66 244.686 235.66C246.715 235.66 248.275 236.91 248.901 238.783C248.118 237.533 246.712 236.597 245.152 236.597Z" fill="#727DFF"/>
<path d="M240.469 254.858C241.934 254.858 243.121 253.67 243.121 252.205C243.121 250.74 241.934 249.553 240.469 249.553C239.004 249.553 237.816 250.74 237.816 252.205C237.816 253.67 239.004 254.858 240.469 254.858Z" fill="#7298FF"/>
<path d="M240.78 250.176C239.22 250.176 238.127 251.425 238.127 252.828C238.127 253.141 238.127 253.298 238.284 253.608C237.971 253.138 237.971 252.672 237.971 252.202C237.971 250.642 239.22 249.549 240.623 249.549C241.873 249.549 242.809 250.329 243.276 251.422C242.806 250.642 241.869 250.172 240.933 250.172H240.78V250.176Z" fill="#7367FF"/>
<path d="M254.648 237.428C253.331 238.187 252.881 239.872 253.641 241.19C254.4 242.508 256.085 242.957 257.403 242.198C258.721 241.439 259.17 239.753 258.411 238.435C257.652 237.118 255.966 236.665 254.648 237.428Z" fill="#7298FF"/>
<path d="M255.137 237.846C253.887 238.626 253.421 240.189 254.2 241.592C254.357 241.748 254.514 242.062 254.67 242.215C254.2 242.058 253.891 241.592 253.734 241.279C252.954 240.029 253.421 238.313 254.67 237.533C255.763 236.91 257.013 237.063 257.793 237.846C257.01 237.377 255.92 237.377 255.137 237.846Z" fill="#7367FF"/>
<path d="M232.351 245.494C233.816 245.494 235.003 244.306 235.003 242.841C235.003 241.377 233.816 240.189 232.351 240.189C230.886 240.189 229.698 241.377 229.698 242.841C229.698 244.306 230.886 245.494 232.351 245.494Z" fill="#71B3FF"/>
<path d="M232.507 240.656C230.948 240.656 229.855 241.905 229.855 243.308C229.855 243.621 229.855 243.778 230.012 244.088C229.698 243.618 229.698 243.151 229.698 242.681C229.698 241.122 230.948 240.029 232.351 240.029C233.6 240.029 234.537 240.809 235.003 241.902C234.533 241.122 233.597 240.652 232.661 240.652H232.507V240.656Z" fill="#7287FF"/>
<path d="M240.47 232.072C242.366 232.072 243.902 230.535 243.902 228.639C243.902 226.744 242.366 225.207 240.47 225.207C238.575 225.207 237.038 226.744 237.038 228.639C237.038 230.535 238.575 232.072 240.47 232.072Z" fill="#71CBFF"/>
<path d="M240.78 225.827C238.907 225.827 237.347 227.386 237.347 229.259C237.347 229.572 237.347 229.882 237.504 230.196C237.191 229.726 237.034 229.103 237.034 228.479C237.034 226.607 238.594 225.047 240.466 225.047C242.026 225.047 243.432 226.14 243.745 227.543C243.122 226.453 242.029 225.827 240.78 225.827Z" fill="#71B8FF"/>
<path d="M271.35 44.2892L258.663 51.5383C255.493 53.3497 252.548 48.593 255.718 46.5535L268.404 39.3043C271.578 37.4929 274.52 42.2496 271.35 44.2892Z" fill="#F7E86E"/>
<path d="M251.19 37.9458C245.752 41.1157 240.995 32.7362 246.433 29.5628L267.952 17.1041L268.18 16.876C275.654 12.5721 269.086 1.2473 261.612 5.55115L232.619 22.3137L200.905 40.6629C178.705 53.5744 197.96 87.0995 220.385 74.4161L257.08 53.1216C252.548 55.8387 248.472 48.8177 253.004 46.1006L265.01 39.3043L271.125 35.6815C271.354 35.4533 271.578 35.4533 271.806 35.4533L284.037 28.4323C288.794 25.7152 284.718 18.6908 279.961 21.4114L273.618 25.0342C273.39 25.2623 273.165 25.2623 272.937 25.4871L261.159 32.2833L251.418 37.9458H251.19Z" fill="#F7E86E"/>
<path d="M245.75 30.0191C245.978 29.7909 246.203 29.7909 246.431 29.5662L252.774 25.9433C259.118 21.4114 252.774 10.9922 245.525 15.0714L216.529 31.8339L212.453 34.0982C209.283 36.1377 206.563 38.1739 204.526 40.2134C206.566 39.5325 208.83 39.0796 211.094 39.0796C220.836 39.0796 228.763 47.0063 228.763 56.7478C228.763 63.0912 225.593 68.5255 220.608 71.6989C225.593 70.7932 229.668 68.9818 232.161 67.6232L240.544 62.8665C236.24 64.6779 232.617 58.1098 237.146 55.6174L249.152 48.8211L252.774 46.7816C253.003 46.5534 253.227 46.5534 253.455 46.3287L265.461 39.5325L269.084 37.4929C272.482 34.5476 268.631 28.4324 264.099 30.9248L261.382 32.5115L257.759 34.551C257.531 34.7792 257.306 34.7792 257.078 35.0039L245.301 41.8002L235.559 47.4626C230.121 50.6326 225.365 42.253 230.802 39.0796L246.431 30.0191H245.75ZM236.465 16.4265L223.778 23.6757C220.608 25.4871 217.663 20.7304 220.833 18.6908L233.519 11.4417C236.689 9.63027 239.635 14.387 236.465 16.4265Z" fill="#FFCC76"/>
<path d="M297.854 6.91315L281.544 16.4266C277.24 18.919 273.618 12.5756 277.921 10.0831L294.231 0.569746C298.532 -1.92267 302.158 4.42073 297.854 6.91315Z" fill="#F7E86E"/>
<path d="M285.62 34.5477C287.121 34.5477 288.337 35.7632 288.337 37.2648C288.337 38.7664 287.121 39.982 285.62 39.982C284.118 39.982 282.902 38.7664 282.902 37.2648C282.902 35.7666 284.118 34.5477 285.62 34.5477Z" stroke="#F7E86E" stroke-width="7.9996"/>
<path d="M244.933 9.85079C246.433 9.80667 247.614 8.55489 247.57 7.05485C247.526 5.55482 246.274 4.37456 244.774 4.41868C243.274 4.4628 242.093 5.71459 242.138 7.21462C242.182 8.71466 243.433 9.89491 244.933 9.85079Z" stroke="#F7E86E" stroke-width="7.9996"/>
<path d="M230.125 27.5266C231.627 27.5266 232.842 28.7422 232.842 30.2438C232.842 31.7454 231.627 32.9609 230.125 32.9609C228.624 32.9609 227.408 31.7454 227.408 30.2438C227.408 28.7422 228.624 27.5266 230.125 27.5266Z" stroke="#F7E86E" stroke-width="7.9996"/>
<path d="M210.869 72.3766C219.5 72.3766 226.498 65.3794 226.498 56.7479C226.498 48.1164 219.5 41.1192 210.869 41.1192C202.237 41.1192 195.24 48.1164 195.24 56.7479C195.24 65.3794 202.237 72.3766 210.869 72.3766Z" fill="url(#paint11_linear)"/>
<path d="M211.097 51.763C213.225 51.763 214.948 53.4859 214.948 55.614C214.948 57.7421 213.225 59.465 211.097 59.465C208.969 59.465 207.246 57.7421 207.246 55.614C207.246 53.4893 208.969 51.763 211.097 51.763Z" fill="#FF8D44"/>
<path d="M210.798 52.8935C212.837 52.8935 214.496 54.2555 214.496 56.5197C214.496 56.9726 214.622 57.2927 214.329 57.7081C214.737 57.1258 214.948 56.2269 214.948 55.5459C214.948 53.5064 213.304 51.5179 211.046 51.7017C208.503 51.9095 207.801 53.1488 207.349 54.7356C208.03 53.6017 209.061 52.8969 210.42 52.8969L210.798 52.8935Z" fill="#FF4858"/>
<path d="M214.719 63.9969C215.969 63.9969 216.984 65.0116 216.984 66.2612C216.984 67.5108 215.969 68.5255 214.719 68.5255C213.47 68.5255 212.455 67.5108 212.455 66.2612C212.455 65.0116 213.47 63.9969 214.719 63.9969Z" fill="#FF724C"/>
<path d="M214.494 64.4498C215.853 64.4498 216.758 65.5836 216.758 66.7141C216.758 66.9422 216.758 67.1669 216.758 67.395C216.987 66.9422 216.987 66.7141 216.987 66.2612C216.987 64.9026 215.853 63.9969 214.722 63.9969C213.588 63.9969 212.683 64.6779 212.458 65.5836C212.907 64.9026 213.585 64.4498 214.494 64.4498Z" fill="#FF325F"/>
<path d="M202.462 53.411C203.599 54.0681 203.991 55.5221 203.333 56.6593C202.676 57.7966 201.222 58.1881 200.085 57.531C198.948 56.8738 198.556 55.4199 199.213 54.2827C199.871 53.1454 201.324 52.7538 202.462 53.411Z" fill="#FF724C"/>
<path d="M202.036 53.8026C203.17 54.4835 203.622 55.8421 202.941 56.9726C202.713 57.2007 202.713 57.4254 202.489 57.4254C202.941 57.1973 203.17 56.9726 203.394 56.5197C204.075 55.3859 203.622 54.0273 202.489 53.3497C201.583 52.8968 200.449 52.8968 199.771 53.5778C200.452 53.125 201.358 53.125 202.036 53.5778V53.8026Z" fill="#FF325F"/>
<path d="M221.74 55.8421C222.989 55.8421 224.004 56.8568 224.004 58.1064C224.004 59.356 222.989 60.3707 221.74 60.3707C220.49 60.3707 219.476 59.356 219.476 58.1064C219.476 56.8568 220.49 55.8421 221.74 55.8421Z" fill="#FF8F44"/>
<path d="M221.516 56.295C222.874 56.295 223.78 57.4288 223.78 58.5592C223.78 58.7874 223.78 59.0121 223.78 59.2402C224.008 58.7874 224.008 58.5592 224.008 58.1064C224.008 56.7478 222.874 55.8421 221.744 55.8421C220.61 55.8421 219.704 56.5231 219.479 57.4288C219.929 56.7478 220.61 56.295 221.516 56.295Z" fill="#FF5256"/>
<path d="M214.72 42.9306C216.347 42.9306 217.665 44.2483 217.665 45.8758C217.665 47.5034 216.347 48.8211 214.72 48.8211C213.092 48.8211 211.774 47.5034 211.774 45.8758C211.774 44.2483 213.092 42.9306 214.72 42.9306Z" fill="#FF9642"/>
<path d="M214.495 43.3834C216.082 43.3834 217.44 44.742 217.44 46.3287C217.44 46.5568 217.44 47.0097 217.212 47.2344C217.44 46.7816 217.665 46.3287 217.665 45.6477C217.665 44.061 216.306 42.7025 214.72 42.7025C213.361 42.7025 212.227 43.6082 211.774 44.742C212.227 43.8363 213.361 43.1553 214.267 43.1553L214.495 43.3834Z" fill="#FF7C49"/>
<defs>
<linearGradient id="paint0_linear" x1="41.8579" y1="294.657" x2="313.973" y2="49.3884" gradientUnits="userSpaceOnUse">
<stop stop-color="#AA27FF"/>
<stop offset="0.573772" stop-color="#FF57BC"/>
<stop offset="1" stop-color="#FFB0C1"/>
</linearGradient>
<linearGradient id="paint1_linear" x1="224.104" y1="-48.5556" x2="236.565" y2="1.96902" gradientUnits="userSpaceOnUse">
<stop stop-color="#AA27FF"/>
<stop offset="0.651" stop-color="#FF57BC"/>
<stop offset="1" stop-color="#FFB0C1"/>
</linearGradient>
<linearGradient id="paint2_linear" x1="33.3299" y1="271.082" x2="284.599" y2="0.369717" gradientUnits="userSpaceOnUse">
<stop stop-color="#AA27FF"/>
<stop offset="0.7608" stop-color="#FF57BC"/>
<stop offset="1" stop-color="#FFB0C1"/>
</linearGradient>
<linearGradient id="paint3_linear" x1="64.0758" y1="148.942" x2="57.3106" y2="116.353" gradientUnits="userSpaceOnUse">
<stop stop-color="#7022E9"/>
<stop offset="1" stop-color="#EA35D6"/>
</linearGradient>
<linearGradient id="paint4_linear" x1="60.7423" y1="150.267" x2="52.8856" y2="98.0123" gradientUnits="userSpaceOnUse">
<stop stop-color="#7022E9"/>
<stop offset="1" stop-color="#EA35D6"/>
</linearGradient>
<linearGradient id="paint5_linear" x1="209.114" y1="111.366" x2="208.884" y2="85.4613" gradientUnits="userSpaceOnUse">
<stop stop-color="#9A16B7"/>
<stop offset="1" stop-color="#FF29A4"/>
</linearGradient>
<linearGradient id="paint6_linear" x1="209.156" y1="124.191" x2="208.767" y2="86.8734" gradientUnits="userSpaceOnUse">
<stop stop-color="#9A16B7"/>
<stop offset="1" stop-color="#FF29A4"/>
</linearGradient>
<linearGradient id="paint7_linear" x1="138.184" y1="20.1864" x2="135.579" y2="56.4886" gradientUnits="userSpaceOnUse">
<stop stop-color="#FA7CA0"/>
<stop offset="1" stop-color="#FD02A0"/>
</linearGradient>
<linearGradient id="paint8_linear" x1="53.9122" y1="249.493" x2="14.6635" y2="192.135" gradientUnits="userSpaceOnUse">
<stop stop-color="#9E1A99"/>
<stop offset="1" stop-color="#FF2D86"/>
</linearGradient>
<linearGradient id="paint9_linear" x1="61.5146" y1="253.256" x2="20.0925" y2="206.439" gradientUnits="userSpaceOnUse">
<stop stop-color="#9E1A99"/>
<stop offset="1" stop-color="#FF2D86"/>
</linearGradient>
<linearGradient id="paint10_linear" x1="237.917" y1="228.852" x2="252.027" y2="253.943" gradientUnits="userSpaceOnUse">
<stop stop-color="#71CBFF"/>
<stop offset="1" stop-color="#7449FF"/>
</linearGradient>
<linearGradient id="paint11_linear" x1="216.911" y1="46.0038" x2="204.725" y2="67.675" gradientUnits="userSpaceOnUse">
<stop stop-color="#FF9642"/>
<stop offset="1" stop-color="#FF1468"/>
</linearGradient>
</defs>
</svg>
