<svg width="296" height="224" viewBox="0 0 296 224" fill="none" xmlns="http://www.w3.org/2000/svg">
<rect width="296" height="224" rx="16" fill="url(#paint0_linear)"/>
<mask id="mask0" mask-type="alpha" maskUnits="userSpaceOnUse" x="0" y="0" width="296" height="224">
<rect width="296" height="224" rx="16" fill="#C4C4C4"/>
</mask>
<g mask="url(#mask0)">
<path d="M342.168 20.6133L339.311 22.6867L338.756 23.1034L338.061 23.6598L332.364 27.8378C332.085 28.117 331.67 28.3942 331.252 28.6734L310.688 43.5725L294.014 55.6876C284.426 62.6496 274.005 48.3069 283.453 41.2053C283.453 41.2053 283.453 41.2053 283.593 41.2053L310.548 21.5698L310.132 21.4302C310.411 21.1509 310.827 20.8738 311.106 20.5946C311.106 20.5946 311.106 20.5946 311.245 20.5946L322.084 12.6574C332.784 2.90946 319.028 -14.9153 306.66 -5.86329L283.734 10.8466L194.938 72.956C200.357 72.26 206.054 70.17 211.752 66.2712L219.393 60.9805C200.634 90.6411 237.873 133.671 272.055 108.745L300.817 87.8572L306.514 83.6792C298.734 87.7176 291.09 76.438 298.734 70.868L319.437 55.8293L325.829 51.2346C325.968 51.095 325.968 51.095 326.107 51.095L326.247 50.9554C326.386 50.8157 326.386 50.8158 326.525 50.6761C326.665 50.5365 326.804 50.5365 326.804 50.3969L342.168 39.2382V20.6133Z" fill="white" fill-opacity="0.1882"/>
<path d="M268.445 13.9119L290.4 -2.10204C295.958 -6.14042 289.705 -14.6339 284.147 -10.5955L262.192 5.41835C256.634 9.45672 262.887 17.9502 268.445 13.9119Z" fill="white" fill-opacity="0.1882"/>
<path d="M255.617 183.195C272.697 178.384 290.321 188.544 294.587 205.669C299.388 222.786 289.25 240.448 272.162 244.723C255.082 249.543 237.458 239.375 233.192 222.25C228.391 205.132 238.537 187.479 255.617 183.195Z" fill="url(#paint1_linear)"/>
<path d="M261.74 203.907C265.91 202.786 270.2 205.268 271.318 209.448C272.437 213.627 269.96 217.926 265.79 219.047C261.62 220.168 257.33 217.686 256.211 213.507C255.085 209.328 257.561 205.028 261.74 203.907Z" fill="#FF8D44"/>
<path d="M261.488 205.669C265.762 204.596 270.028 206.742 271.099 211.017C271.099 211.553 271.634 212.626 271.099 213.155C271.634 212.082 271.634 210.481 271.099 208.871C270.028 204.588 265.762 202.45 261.488 203.523C258.284 204.596 256.151 207.27 255.616 210.481C256.151 207.807 258.284 205.669 260.953 205.132L261.488 205.669Z" fill="#FF4858"/>
<path d="M245.857 211.585C248.437 212.274 249.963 214.932 249.276 217.518C248.589 220.104 245.937 221.633 243.356 220.945C240.776 220.248 239.25 217.598 239.937 215.012C240.624 212.426 243.276 210.889 245.857 211.585Z" fill="#FF724C"/>
<path d="M244.947 212.626C247.615 213.163 249.221 215.837 248.15 218.511C248.15 219.047 247.615 219.584 247.615 219.584C248.15 219.047 248.686 218.511 248.686 217.446C249.221 214.772 247.615 212.098 245.482 211.561C243.349 211.025 241.208 212.098 240.146 213.699C241.216 212.626 242.814 212.098 244.42 212.626H244.947Z" fill="#FF325F"/>
<path d="M284.93 205.845C287.51 205.148 290.17 206.686 290.865 209.28C291.56 211.865 290.027 214.531 287.438 215.22C284.858 215.917 282.197 214.379 281.51 211.785C280.807 209.199 282.341 206.533 284.93 205.845Z" fill="#FF8F44"/>
<path d="M284.988 207.27C287.656 206.734 290.324 208.343 290.86 210.481C290.86 211.017 290.86 211.553 290.86 212.09C290.86 211.553 290.86 210.481 290.86 209.416C290.324 206.742 287.656 205.132 284.988 206.205C282.855 206.742 281.784 208.343 281.249 210.489C281.784 208.887 282.855 207.814 284.453 207.278H284.988V207.27Z" fill="#FF5256"/>
<path d="M264.29 184.036C267.622 183.139 271.041 185.125 271.936 188.463C272.83 191.802 270.849 195.237 267.518 196.126C264.186 197.022 260.767 195.037 259.872 191.698C258.986 188.367 260.959 184.933 264.29 184.036Z" fill="#FF9642"/>
<path d="M264.17 185.869C267.373 184.797 270.577 186.942 271.647 190.153C271.647 190.689 271.647 191.226 271.647 191.762C272.183 190.689 272.183 189.624 271.647 188.551C270.577 185.341 267.373 183.203 264.17 184.268C261.501 184.805 259.896 187.479 259.896 190.153C260.431 188.015 262.029 186.406 264.17 185.869Z" fill="#FF7C49"/>
<path d="M143.573 84.5627C143.573 84.5627 156.775 100.299 157.608 100.577C158.442 100.856 159.137 100.577 159.415 100.297C159.694 99.8786 159.833 99.1826 159.276 98.6262C158.721 97.9302 147.326 84.1439 147.326 84.1439L143.713 84.7002L143.573 84.5627Z" fill="#C3E3F5"/>
<path d="M147.604 89.2971C151.494 93.8918 157.052 100.437 157.609 100.577C158.443 100.856 158.998 100.716 159.277 100.297L148.995 88.4615C148.992 88.4615 147.882 89.2971 147.604 89.2971Z" fill="#E0F0FA"/>
<path d="M190.678 78.5759C182.897 82.3351 173.031 88.8802 169.835 98.2114C168.446 102.11 168.168 106.845 172.197 109.212C179.007 113.25 190.399 108.097 196.097 104.477C204.99 98.7678 220.69 94.0334 238.755 90.6911C273.77 84.0063 330.324 94.8691 330.046 43.9017C329.906 29.4194 325.182 15.9123 316.15 2.68232C301.144 -19.3204 277.939 -14.4464 257.234 -10.1288C247.228 -8.04085 237.919 -6.09042 229.86 -7.06563C204.432 -10.2684 171.362 -16.2572 146.905 7.41668C136.205 17.721 131.76 29.6965 131.204 41.1157C130.512 53.9268 134.82 66.1816 140.518 74.5376C141.212 75.5128 142.046 75.7899 143.158 76.488C144.271 77.184 144.686 78.0196 144.965 78.2988C145.244 78.578 149.829 84.5647 149.829 84.844C149.829 85.1232 149.968 86.5152 148.995 87.6279C148.022 88.7427 146.354 89.4387 145.104 89.0199C143.855 88.4635 142.742 86.3735 140.102 83.1707C137.461 79.9679 137.6 79.6887 137.322 77.8799C137.182 76.3484 136.767 75.6524 136.627 75.5128C130.93 66.6004 126.761 54.0664 127.456 40.9782C128.011 28.7234 132.874 15.9123 144.269 4.77235C170.114 -20.1539 204.295 -14.0276 230.28 -10.6852C237.645 -9.70996 246.677 -11.6604 256.402 -13.7483C278.218 -18.3431 302.672 -23.4963 319.069 0.594364C328.517 14.5203 333.52 28.7234 333.659 43.9017C333.938 97.7926 276.689 87.209 239.449 94.3106C221.942 97.653 206.657 102.248 198.18 107.678C191.094 112.273 178.587 117.286 170.39 112.552C164.693 109.21 164.415 102.804 166.361 97.2342C169.973 86.9298 180.394 79.5491 189.15 75.5107L190.678 78.8531V78.5759Z" fill="#4F29C2"/>
<path d="M147.705 88.4468C146.871 88.8657 145.796 89.1595 144.963 88.7406C143.713 88.1843 142.601 86.0942 139.96 82.8914C137.319 79.6887 137.459 79.4094 137.18 77.6007C137.041 76.0691 136.625 75.3731 136.485 75.2335C130.79 66.3212 126.621 53.7893 127.316 40.6989C127.871 28.4442 132.734 15.633 144.129 4.49312C169.974 -20.4331 204.156 -14.3068 230.14 -10.9644C237.505 -9.98921 246.535 -11.9396 256.262 -14.0276C270.297 -16.9511 285.443 -20.1539 298.921 -15.5592C275.716 -20.8499 252.511 -10.6852 236.671 -9.43283C220.831 -8.04086 183.452 -19.7372 158.719 -4.83809C133.986 10.2027 127.179 29.8361 129.123 46.6856C131.069 63.3955 137.598 74.2583 138.294 74.9543C138.989 75.6503 139.544 77.1819 139.962 78.1571C140.241 78.8531 144.965 84.9815 147.605 88.3218L147.705 88.4468Z" fill="#7222E9"/>
<path d="M229.17 8.11273H227.224L226.669 8.94834C226.669 8.94834 225.001 8.94833 224.584 10.0632C224.166 11.0384 220.138 17.4439 218.331 21.8991C216.524 26.3563 212.357 46.5461 212.357 46.5461L221.945 42.3681L220.972 40.9761C220.972 40.9761 223.889 27.7483 224.862 25.379C225.835 23.0118 230.699 14.6558 231.115 13.4035C231.393 12.1511 230.836 11.453 230.836 11.453L231.252 9.92146L229.306 7.97104L229.17 8.11273Z" fill="#F7E86E"/>
<path d="M229.169 8.1127H227.222L226.667 8.9483C226.667 8.9483 225 8.9483 224.582 10.0631C224.164 11.0383 220.136 17.4439 218.329 21.899C217.08 24.9622 214.855 35.2666 213.466 41.5346C216.107 41.8138 218.884 41.395 221.107 40.4198C221.523 38.3318 222.914 32.0638 224.024 28.3046C224.024 22.0387 225.831 16.4687 226.526 14.6579C227.36 12.1511 228.748 11.5947 228.748 11.5947L230.137 9.08791L229.304 8.25231L229.169 8.1127Z" fill="#FBDC72"/>
<path d="M214.527 36.496C213.278 41.9263 212.305 46.5232 212.305 46.5232L221.892 42.3452L220.919 40.9532C220.919 40.9532 221.753 36.9148 222.726 33.016C222.587 33.016 222.447 33.016 222.31 33.1556C218.973 33.9892 216.472 35.2415 214.527 36.496Z" fill="#FFCC76"/>
<path d="M225.14 41.8117C225.14 41.8117 229.169 41.395 229.169 41.5325C229.169 41.6721 229.448 42.3681 230.837 43.6225C232.226 44.7373 232.365 48.7757 232.365 48.7757L230.698 51.5597C230.698 51.5597 226.113 54.9021 224.027 57.686C221.804 60.472 219.719 64.7876 219.719 64.7876C219.719 64.7876 217.218 65.0668 213.745 63.256C210.134 61.4452 207.354 58.2424 207.354 58.2424C207.354 58.2424 210.134 51.2805 210.41 50.1656C210.826 49.0508 210.549 44.5957 212.217 43.3433C214.024 42.0909 217.775 39.8613 219.582 39.3049C221.387 38.7485 225.14 41.8117 225.14 41.8117Z" fill="#F7E86E"/>
<path d="M231.114 50.7262L230.559 51.5618C230.559 51.5618 225.974 54.9042 223.889 57.6881C221.666 60.4741 219.58 64.7896 219.58 64.7896C219.58 64.7896 217.079 65.0689 213.607 63.2581C209.993 61.4473 207.215 58.2445 207.215 58.2445C207.215 58.2445 209.995 51.2826 210.271 50.1677C210.411 49.8885 210.646 49.0967 210.646 48.5403C211.895 49.6551 213.051 49.0529 214.995 50.5866C217.636 52.537 220.138 53.233 222.776 51.5618C225.417 49.8906 227.5 48.9154 227.5 48.9154C227.5 48.9154 227.779 49.8906 230.975 50.5866L231.114 50.7262Z" fill="#FBDC72"/>
<path d="M222.22 41.5346L221.664 40.1426C221.664 40.1426 220.415 40.4218 219.997 40.8386C219.579 41.2574 218.329 42.5098 219.718 44.0414C221.107 45.7126 223.332 45.4334 225.831 44.7374C228.333 44.0414 229.166 42.7869 229.166 42.2306C229.306 41.8117 228.888 40.5594 228.888 40.5594L222.217 41.395V41.5346H222.22Z" fill="white"/>
<path d="M260.85 42.0909L259.6 41.1157L258.35 41.2553C258.35 41.2553 257.517 40.2801 256.683 40.2801C255.849 40.2801 242.093 42.9265 240.564 43.0641C239.036 43.2037 231.393 42.6473 230.143 43.2037C228.893 43.7601 227.363 46.2669 227.642 48.3569C227.92 50.4449 228.336 51.2805 231.671 51.6993C234.867 52.1161 244.178 50.4449 245.149 50.1677C246.122 49.751 257.793 47.2442 258.488 46.9649C259.182 46.6857 259.6 45.8501 259.6 45.8501L260.573 45.4333C260.573 45.4333 262.101 44.7373 260.989 42.0909H260.85Z" fill="#F7E86E"/>
<path d="M227.639 48.9154C227.917 50.5866 228.612 51.2825 231.529 51.7014C234.725 52.1181 244.036 50.447 245.007 50.1698C245.98 49.753 257.651 47.2463 258.345 46.967C259.04 46.6878 259.458 45.8522 259.458 45.8522L260.431 45.4354C260.431 45.4354 261.404 44.8791 261.265 43.2079C260.431 43.4871 258.903 43.9039 258.624 44.0435C258.208 44.1831 258.069 44.5998 257.651 44.7395C257.235 44.8791 253.761 45.7147 250.425 46.5503C247.09 47.3859 245.841 48.3611 241.254 47.8026C236.669 47.3838 235.835 48.2194 231.806 48.7778C230.556 48.9175 229.165 48.9174 227.776 48.9174H227.639V48.9154Z" fill="#FBDC72"/>
<path d="M262.933 40.5594C262.933 40.5594 266.824 40.003 270.159 39.3049C273.494 38.7485 274.189 38.6089 274.467 39.1653C274.885 40.0009 269.049 41.1157 268.354 41.2532C268.354 41.2532 271.55 41.5325 273.218 41.5325C274.885 41.5325 275.164 41.5325 275.301 41.8117C275.44 42.0909 275.301 42.5077 274.467 42.6473C273.633 42.7869 272.384 42.9265 270.577 42.7869C268.909 42.7869 268.076 42.6473 268.076 42.6473C268.076 42.6473 270.022 43.3433 271.827 43.6225C273.773 44.0413 273.773 43.9017 273.912 44.1789C274.051 44.4581 274.051 45.1541 272.244 45.0145C270.438 45.0145 267.936 44.4581 267.936 44.4581C267.936 44.4581 269.743 45.0145 270.853 45.4333C271.966 45.8501 271.409 46.2689 270.714 46.4085C270.159 46.5481 266.269 45.7126 265.711 45.5729C265.156 45.5729 260.293 45.5729 260.293 45.5729L259.877 44.8769L262.794 40.699L262.933 40.5594Z" fill="url(#paint2_linear)"/>
<path d="M226.944 40.9782C226.944 40.9782 232.224 37.915 233.336 37.915C234.448 37.915 234.031 40.9782 241.395 39.8654C248.76 38.7506 248.76 34.9914 252.372 33.3202C255.984 31.6491 258.348 33.5995 261.959 31.7887C265.71 29.9779 263.488 25.7999 267.935 23.8515C272.381 21.9011 275.3 17.5856 272.104 13.4076C268.908 9.2296 263.49 9.08998 260.015 11.4572C256.68 13.964 255.152 14.9392 251.401 13.5451C247.51 12.2928 240.146 15.6331 237.784 20.9259C235.422 26.2166 232.365 22.5971 227.778 25.1039C223.193 27.6107 222.775 31.2302 222.775 31.2302L226.526 31.0906L227.221 40.9782H226.944Z" fill="#85146C"/>
<path d="M226.944 26.773C226.944 26.773 225.694 29.5591 228.611 30.951C231.529 32.343 231.252 35.2686 231.252 35.2686C231.252 35.2686 231.807 33.7371 232.78 33.3182C233.753 32.9015 235.003 34.1538 234.448 35.4062C233.893 36.6585 232.225 36.9377 232.225 36.9377L228.195 42.5077C228.195 42.5077 224.86 44.7353 222.082 43.8997C219.442 42.9244 220.275 41.8117 220.554 41.2533C220.833 40.6969 223.334 38.7465 223.334 38.7465C223.334 38.7465 221.667 37.9109 221.806 36.2397C221.945 34.5685 223.75 31.2261 226.669 26.9106L226.944 26.773Z" fill="#FFC0D1"/>
<path d="M223.61 38.611C223.61 38.611 222.915 39.1674 222.221 39.7259C222.915 41.1178 224.999 41.1178 226.945 40.4218C228.612 39.8655 230.141 38.7506 230.696 37.6379C229.862 38.3339 228.334 39.0299 226.806 39.1695C225.556 39.307 224.443 39.1674 223.61 38.611Z" fill="#F49FBC"/>
<path d="M260.016 44.7373C264.879 43.9017 264.6 40.699 264.879 40.2822C265.158 39.8654 268.909 37.4983 268.63 36.6627C268.351 35.8271 267.518 36.3834 267.518 36.3834C267.518 36.3834 263.767 38.8882 262.378 39.8634C260.989 40.8386 259.598 41.2553 259.598 41.2553C259.598 41.2553 259.598 42.5077 259.737 43.6225C259.876 44.0413 259.876 44.4581 260.016 44.8749V44.7373Z" fill="#FFC0D1"/>
<path d="M232.641 6.99995C232.641 6.99995 234.309 3.37833 235.698 0.315156C237.087 -2.74802 237.505 -3.3044 236.948 -3.86285C236.253 -4.55884 233.752 0.871518 233.336 1.5675C233.336 1.5675 233.891 -1.49566 234.448 -3.16686C235.004 -4.69845 235.004 -5.1173 234.727 -5.25483C234.448 -5.39444 234.032 -5.53404 233.754 -4.69844C233.475 -4.00246 233.059 -2.74802 232.641 -1.0789C232.226 0.5923 232.226 1.42789 232.226 1.42789C232.226 1.42789 232.086 -0.522527 232.226 -2.47087C232.365 -4.41922 232.365 -4.55883 232.226 -4.69844C232.086 -4.83806 231.392 -5.11729 230.976 -3.30647C230.558 -1.63527 230.421 1.01114 230.421 1.01114C230.421 1.01114 230.281 -0.939296 230.281 -2.05204C230.142 -3.16687 229.587 -2.74802 229.308 -2.19165C229.03 -1.63528 228.893 2.26349 228.753 2.82195C228.614 3.37832 227.364 7.97516 227.364 7.97516L227.919 8.53154L232.783 6.86034L232.641 6.99995Z" fill="url(#paint3_linear)"/>
<path d="M227.778 8.67114C229.861 4.216 232.92 5.18913 233.336 5.04952C233.891 4.9099 237.087 1.84673 237.781 2.40311C238.476 2.95948 237.781 3.51794 237.781 3.51794C237.781 3.51794 234.446 6.5811 233.057 7.69593C231.668 8.81075 230.974 9.9235 230.974 9.9235C230.974 9.9235 229.861 9.64427 228.751 9.0879C228.335 8.80867 227.917 8.67114 227.639 8.53153L227.778 8.67114Z" fill="#FFC0D1"/>
<path d="M195.265 48.4965C199.155 48.4965 202.63 49.4717 205.268 51.0033L205.823 49.1925L209.853 51.1429V57.8277C209.853 62.9809 203.322 67.2964 195.402 67.2964C187.343 67.2964 180.951 63.1184 180.951 57.8277C180.951 52.6745 187.482 48.359 195.402 48.359L195.265 48.4965Z" fill="#FBDC72"/>
<path d="M140.101 37.7754C141.49 36.2438 143.297 34.8518 145.243 33.737C156.498 25.6603 174.563 15.6331 185.678 18.4191C191.236 19.8111 193.183 23.9891 193.598 26.7751C194.016 29.5611 190.958 42.3722 190.958 42.3722C192.347 42.093 193.738 41.9555 195.266 41.9555C207.494 41.9555 214.302 51.2846 206.382 57.413L215.275 62.5662C218.055 60.6158 222.085 59.3634 226.53 59.3634C234.868 59.3634 241.815 63.8186 241.536 69.3906C250.011 67.4402 257.655 66.0482 266.826 64.6563C267.939 64.2395 276.553 63.5414 282.39 70.7826C292.95 83.7333 267.66 105.874 257.796 112.558L254.182 106.292C249.458 108.52 243.622 109.774 237.369 109.774C221.111 109.774 207.912 101.141 208.189 90.4181C199.156 85.6838 179.842 72.733 178.869 72.037C177.896 71.341 177.48 66.7463 178.453 63.5414C174.145 65.2126 169.281 66.1878 163.863 66.1878C148.299 66.1878 135.655 57.9715 135.655 47.8068C135.655 44.1851 137.323 40.8448 139.964 38.0588L140.101 37.7754Z" fill="#7222E9"/>
<path d="M208.882 86.7923L209.716 84.7023L167.058 60.0553V70.6388L208.604 94.7295L208.882 86.7923Z" fill="#4F29C2"/>
<path d="M237.504 117.705C253.62 117.705 266.684 109.227 266.684 98.7679C266.684 88.309 253.62 79.8304 237.504 79.8304C221.388 79.8304 208.323 88.309 208.323 98.7679C208.323 109.227 221.388 117.705 237.504 117.705Z" fill="#7222E9"/>
<path d="M230.004 80.3868L216.386 80.5264C216.386 80.5264 209.3 86.0964 208.882 86.7923C208.464 87.4883 208.327 99.3263 208.327 99.3263L230.004 80.5264V80.3868Z" fill="#7222E9"/>
<path d="M163.722 72.7497C179.301 72.7497 191.93 64.7954 191.93 54.9833C191.93 45.1712 179.301 37.2169 163.722 37.2169C148.144 37.2169 135.515 45.1712 135.515 54.9833C135.515 64.7954 148.144 72.7497 163.722 72.7497Z" fill="#7222E9"/>
<path d="M157.191 37.4962L143.574 37.6358L135.687 46.9066L135.408 56.3753L157.051 37.6358L157.191 37.4962Z" fill="#7222E9"/>
<path d="M182.759 69.1072L174.839 64.5125C171.364 65.4877 167.752 65.9045 163.999 65.9045C151.355 65.9045 139.127 60.1949 136.347 51.1429C135.929 50.0281 135.792 48.7758 135.792 47.5213L135.407 56.3753C135.962 66.1233 148.575 73.702 163.721 73.702C170.252 73.702 177.199 72.1704 182.756 68.9676V69.1072H182.759Z" fill="url(#paint4_linear)"/>
<path d="M192.344 22.8742C192.484 24.4058 192.484 25.7978 192.205 27.0522C191.789 28.7234 189.982 33.3182 188.036 37.915C189.286 39.307 190.398 40.699 191.093 42.2326C191.093 42.2326 194.149 29.4215 193.733 26.6355C193.594 25.5207 193.178 24.2683 192.344 23.0159V22.8742Z" fill="#4F29C2"/>
<path d="M252.93 74.398C262.517 78.2967 268.909 86.0943 265.992 94.5899C264.185 99.7431 259.461 103.642 254.319 106.009C249.595 108.237 243.758 109.491 237.506 109.491C224.583 109.491 212.078 103.781 209.022 94.5899C208.743 93.8939 208.606 93.0583 208.466 92.3623L208.327 99.1846C208.745 109.489 221.666 117.705 237.508 117.705C245.428 117.705 252.653 115.615 257.795 112.275C258.49 111.856 259.323 111.3 260.157 110.604C268.772 104.198 283.917 90.4119 284.89 78.9927C280.027 87.0695 271.412 94.0314 266.131 97.9302C267.243 95.8422 267.799 93.6126 267.799 91.385C267.799 84.1438 261.823 77.7383 252.792 74.3959H252.93V74.398Z" fill="url(#paint5_linear)"/>
<path d="M209.714 84.7023C211.243 81.6391 213.883 78.8531 217.495 76.6255H217.356C213.742 78.7135 210.825 81.3599 209.157 84.4231L209.714 84.7023Z" fill="#4F29C2"/>
<path d="M188.04 57.2692C187.485 57.8256 187.067 58.2445 186.372 58.8008C185.123 59.9157 183.592 60.8888 181.925 61.7244C180.812 62.2807 179.702 62.8392 178.45 63.256C177.201 63.6748 175.949 64.0916 174.699 64.5104L176.088 65.346C176.783 65.0668 177.338 64.9292 178.034 64.65C179.563 64.0936 181.091 63.3977 182.48 62.5621C184.287 61.5868 185.815 60.3345 187.204 59.08C187.759 58.6633 188.177 58.1048 188.593 57.5485C188.314 57.4089 188.038 57.2692 187.898 57.1296L188.04 57.2692Z" fill="#4F29C2"/>
<path d="M145.241 33.737C150.244 30.8135 156.775 29.1423 164 29.1423C174.143 29.1423 183.036 32.6243 188.039 37.915V37.7754C182.897 32.3451 173.867 28.5838 163.445 28.5838C158.166 28.5838 153.163 29.559 148.994 31.2302C147.743 32.0658 146.493 32.9014 145.241 33.737Z" fill="url(#paint6_linear)"/>
<path d="M208.882 63.6748L206.102 62.0036L203.879 60.7513V61.8661L208.882 64.7896V63.6748Z" fill="url(#paint7_linear)"/>
<path d="M208.883 63.6748V64.7896L211.384 63.258V62.1432L208.883 63.6748Z" fill="url(#paint8_linear)"/>
<path d="M208.882 63.6748L211.383 62.1432L209.021 60.8909L206.38 59.2197L203.879 60.7512L206.102 62.0036L208.882 63.6748Z" fill="url(#paint9_linear)"/>
<path d="M206.936 75.6503L203.601 73.702V74.8168L206.936 76.7652V75.6503Z" fill="url(#paint10_linear)"/>
<path d="M206.936 75.6504V76.7652L209.437 75.2336V74.2584L206.936 75.6504Z" fill="url(#paint11_linear)"/>
<path d="M206.936 75.6503L209.437 74.2583L206.102 72.31L203.601 73.702L206.936 75.6503Z" fill="url(#paint12_linear)"/>
<path d="M190.124 66.042L187.762 63.1184V64.2333L190.124 67.0172V66.042Z" fill="url(#paint13_linear)"/>
<path d="M190.123 66.042V67.0172L192.624 65.6252V64.5104L190.123 66.042Z" fill="url(#paint14_linear)"/>
<path d="M190.124 66.042L192.625 64.5104L187.762 63.1184L190.124 66.042Z" fill="url(#paint15_linear)"/>
<path d="M226.53 76.9048C232.056 76.9048 236.535 73.9744 236.535 70.3596C236.535 66.7448 232.056 63.8144 226.53 63.8144C221.004 63.8144 216.524 66.7448 216.524 70.3596C216.524 73.9744 221.004 76.9048 226.53 76.9048Z" fill="#4F29C2"/>
<path d="M226.529 63.3976C231.287 63.3976 235.144 65.8919 235.144 68.9676C235.144 72.0433 231.287 74.5376 226.529 74.5376C221.772 74.5376 217.915 72.0433 217.915 68.9676C217.915 65.8899 221.772 63.3976 226.529 63.3976Z" fill="url(#paint16_radial)"/>
<path d="M195.264 46.269C200.789 46.269 205.268 49.1988 205.268 52.8141C205.268 56.4295 200.789 59.3593 195.264 59.3593C189.74 59.3593 185.259 56.4295 185.259 52.8141C185.259 49.1988 189.738 46.269 195.264 46.269Z" fill="#4F29C2"/>
<path d="M195.264 45.7126C200.021 45.7126 203.878 48.2069 203.878 51.2825C203.878 54.3582 200.021 56.8525 195.264 56.8525C190.506 56.8525 186.649 54.3582 186.649 51.2825C186.649 48.2048 190.504 45.7126 195.264 45.7126Z" fill="url(#paint17_radial)"/>
<path d="M258.21 85.1211L246.26 78.1571L237.924 83.0311L229.586 78.1571L217.498 85.1211L225.975 89.9951L216.942 95.1462L229.031 102.11L237.924 96.9571L247.094 102.11L259.044 95.1462L250.013 89.9951L258.21 85.1211Z" fill="url(#paint18_linear)"/>
<path d="M243.866 94.4845L242.477 91.4214C242.338 91.561 242.338 91.7006 242.338 91.8381V92.805L243.76 96.2599L243.868 93.5093V94.4845H243.866Z" fill="url(#paint19_linear)"/>
<path d="M243.758 94.4503V96.2611L248.205 93.7543V91.9435L243.758 94.4503Z" fill="url(#paint20_linear)"/>
<path d="M248.205 96.9571L243.758 94.4503V96.2611L248.205 98.7679V96.9571Z" fill="url(#paint21_linear)"/>
<path d="M248.204 96.9571V98.7679L252.51 96.2611V94.4503L248.204 96.9571Z" fill="url(#paint22_linear)"/>
<path d="M248.207 96.9571L252.515 94.4503L248.207 91.9435L245.29 91.5267L243.067 91.2475C242.928 91.2475 242.618 91.2829 242.479 91.4226L243.759 94.5128L248.207 96.9571Z" fill="url(#paint23_linear)"/>
<path d="M234.865 92.7791L236.281 89.6722C236.337 89.8472 236.394 89.9951 236.394 90.2723V91.2183L234.865 94.5899V91.8039V92.7791Z" fill="url(#paint24_linear)"/>
<path d="M234.865 92.7791V94.5899L230.559 92.0831V90.2723L234.865 92.7791Z" fill="url(#paint25_linear)"/>
<path d="M230.559 95.2859L234.865 92.7791V94.5899L230.559 97.0967V95.2859Z" fill="url(#paint26_linear)"/>
<path d="M230.557 95.2859V97.0967L226.249 94.5899V92.7791L230.557 95.2859Z" fill="url(#paint27_linear)"/>
<path d="M230.557 95.2858L226.249 92.7791L230.557 90.2722L235.837 89.4367C235.976 89.4367 236.24 89.4804 236.279 89.6721L234.863 92.7791L231.241 94.9212L230.557 95.2858Z" fill="url(#paint28_linear)"/>
<path d="M183.591 42.7869L171.92 35.9646L163.861 40.699L155.801 35.9646L144.128 42.6494L152.327 47.3837L143.573 52.3953L155.246 59.08L163.861 54.0664L172.754 59.2197L184.285 52.3953L175.532 47.3837L183.591 42.7869Z" fill="url(#paint29_linear)"/>
<path d="M251.817 82.8915V84.8419L247.511 82.3351V80.3868L251.817 82.8915Z" fill="url(#paint30_linear)"/>
<path d="M247.511 87.3487L242.231 88.1843C242.092 88.1843 241.953 88.1843 241.813 88.0447V86.0943L242.647 85.8151L243.202 83.7271L245.009 82.8915L245.704 83.3104L247.371 82.3351L251.68 84.8419L247.371 87.3487H247.511Z" fill="url(#paint31_linear)"/>
<path d="M247.511 85.3983L251.817 82.8915V84.8419L247.511 87.3487V85.3983Z" fill="url(#paint32_linear)"/>
<path d="M247.511 85.3983L243.202 82.8915L247.511 80.3847L251.819 82.8915L247.511 85.3983ZM247.511 85.3983L242.231 86.2339C242.092 86.2339 241.953 86.2339 241.813 86.0942L243.14 83.0415L243.202 82.8915L247.511 85.3983Z" fill="url(#paint33_linear)"/>
<path d="M227.919 87.0695L233.198 87.9051C233.338 87.9051 233.477 87.9051 233.616 87.7655V85.9547L232.782 85.5358L232.227 83.4479L230.42 82.6123L229.726 83.029L228.058 82.0538L223.75 84.5606L227.825 86.932L227.919 87.0695Z" fill="url(#paint34_linear)"/>
<path d="M227.919 85.2608L223.61 82.754V84.5627L227.919 87.0695V85.2608Z" fill="url(#paint35_linear)"/>
<path d="M227.919 85.2608L232.227 82.754L227.919 80.2472L223.61 82.754L227.919 85.2608ZM227.919 85.2608L233.198 86.0964C233.337 86.0964 233.477 86.0964 233.616 85.9568L232.227 82.754L231.819 82.7977L227.919 85.2608Z" fill="url(#paint36_linear)"/>
<path d="M155.523 45.1541C158.363 45.1541 160.665 43.6577 160.665 41.8117C160.665 39.9657 158.363 38.4693 155.523 38.4693C152.683 38.4693 150.381 39.9657 150.381 41.8117C150.381 43.6577 152.683 45.1541 155.523 45.1541Z" fill="url(#paint37_radial)"/>
<path d="M173.449 48.7758C176.289 48.7758 178.591 50.2719 178.591 52.1181C178.591 53.9644 176.289 55.4605 173.449 55.4605C170.608 55.4605 168.307 53.9644 168.307 52.1181C168.307 50.2719 170.608 48.7758 173.449 48.7758Z" fill="url(#paint38_radial)"/>
<path d="M154.968 48.3569C157.96 48.3569 160.387 49.9781 160.387 51.9764C160.387 53.9769 157.96 55.598 154.968 55.598C151.976 55.598 149.55 53.9769 149.55 51.9764C149.55 49.9781 151.976 48.3569 154.968 48.3569Z" fill="url(#paint39_radial)"/>
<path d="M171.921 38.8882C174.607 38.8882 176.784 40.3218 176.784 42.0909C176.784 43.8601 174.607 45.2937 171.921 45.2937C169.235 45.2937 167.058 43.8601 167.058 42.0909C167.058 40.3218 169.235 38.8882 171.921 38.8882Z" fill="url(#paint40_radial)"/>
<path d="M152.607 42.9266C151.913 42.5098 151.357 41.8117 151.357 41.1157C151.357 40.4198 151.773 39.7238 152.607 39.3049C153.302 38.8882 154.414 38.6089 155.524 38.6089C156.637 38.6089 157.608 38.8882 158.442 39.3049C159.136 39.7238 159.691 40.4198 159.691 41.1157C159.691 41.8117 159.273 42.5077 158.442 42.9266C157.747 43.3454 156.635 43.6225 155.524 43.6225C154.414 43.6225 153.441 43.3454 152.607 42.9266ZM159.138 40.9782C159.138 40.4218 158.859 40.003 158.165 39.5862C157.47 39.1695 156.637 38.8903 155.524 38.8903C154.551 38.8903 153.578 39.1695 152.884 39.5862C152.328 40.003 151.911 40.4218 151.911 40.9782C151.911 41.5346 152.189 41.9534 152.884 42.3702C153.578 42.789 154.412 43.0662 155.524 43.0662C156.497 43.0662 157.47 42.7869 158.165 42.3702C158.72 41.9513 159.138 41.5346 159.138 40.9782Z" fill="url(#paint41_linear)"/>
<path d="M173.309 43.3454C173.382 43.5184 173.353 43.6892 173.17 43.7622C172.958 43.8497 172.843 43.7642 172.752 43.6225L171.596 41.6867L168.446 42.5077C168.358 42.5411 168.209 42.4952 168.167 42.3681C168.126 42.2347 168.171 42.1243 168.306 42.0889L171.363 41.2533L170.39 39.5821C170.301 39.3862 170.346 39.2382 170.529 39.1653C170.721 39.0882 170.852 39.157 170.945 39.3049L172.057 41.1157L175.253 40.2801C175.368 40.2551 175.478 40.2447 175.567 40.401C175.636 40.5219 175.542 40.6656 175.391 40.6969L172.297 41.5408L173.309 43.3454Z" fill="url(#paint42_linear)"/>
<path d="M177.105 50.8074C177.222 50.8679 177.257 51.02 177.257 51.02C177.257 51.1596 177.245 51.2242 177.105 51.3638L173.77 53.3142C173.631 53.3142 173.631 53.3142 173.492 53.3142L170.017 51.3638C169.882 51.2867 169.863 51.0929 169.863 51.0929C169.892 50.9345 169.878 50.945 170.017 50.8053L173.352 48.8549C173.492 48.8549 173.492 48.8549 173.631 48.8549L177.105 50.8074ZM170.712 50.8074L173.629 52.4786L176.409 50.947L173.492 49.2758L170.712 50.8074Z" fill="url(#paint43_linear)"/>
<path d="M154.944 52.8391L158.504 50.3928L152.374 49.6905L154.882 52.8787L154.944 52.8391ZM151.497 49.5176C151.453 49.4447 151.507 49.2634 151.69 49.2738L151.809 49.2863L159.334 50.2365C159.473 50.2344 159.614 50.3698 159.616 50.5095C159.616 50.5095 159.623 50.5449 159.481 50.6512C158.417 51.4513 155.1 53.6705 155.1 53.6705C154.961 53.6726 154.821 53.6768 154.68 53.5413L151.536 49.5697L151.497 49.5176Z" fill="url(#paint44_linear)"/>
<path d="M266.592 97.0675C266.453 97.3468 266.314 97.6239 266.176 97.9031C266.316 97.7635 266.455 97.6239 266.732 97.4864C271.874 93.7272 280.209 86.9028 285.073 78.9657C285.351 75.9025 284.655 73.1165 282.571 70.6097C282.293 70.1908 281.877 69.7741 281.459 69.4948C275.762 75.4836 264.091 81.8892 264.091 81.8892C266.592 84.6752 267.883 87.9405 267.883 91.4225C267.883 93.373 267.657 94.6607 266.823 96.4715L266.592 97.0675ZM265.898 94.4211C260.061 106.815 222.266 112.802 211.15 96.7883C210.456 95.8131 209.901 94.7003 209.483 93.5855C209.204 92.8895 208.928 92.0539 208.788 91.2183C208.788 90.9391 208.649 90.662 208.649 90.3827C208.649 91.0787 208.649 91.6351 208.51 92.3332C208.51 92.6124 208.649 93.0291 208.649 93.3084C208.788 93.7272 208.928 94.144 209.067 94.7003L209.206 95.1171C209.485 95.9527 209.901 96.7883 210.456 97.4843C214.764 104.446 225.325 109.46 237.551 109.46C243.803 109.46 249.64 108.207 254.364 105.978C257.421 104.586 260.201 102.775 262.145 100.685C263.952 98.8742 265.205 96.7862 266.035 94.6983C266.467 93.6105 266.443 93.2625 266.517 92.5519C266.397 93.1979 266.347 93.5147 266.068 94.071L265.898 94.4211Z" fill="url(#paint45_linear)"/>
<path d="M167.058 65.6252C155.108 66.042 144.548 60.472 139.545 52.8141C137.599 49.8906 136.488 46.269 136.488 43.485C136.073 44.5998 135.794 45.7126 135.794 46.967C135.794 47.2463 135.794 47.5234 135.794 47.9422C135.794 50.1698 136.628 52.6766 137.74 54.4874C142.604 62.2849 154.692 66.7421 167.058 65.9065C169.699 65.7669 172.337 65.2106 174.839 64.6542C172.198 65.3502 169.697 65.6294 167.058 65.769V65.6252ZM176.645 30.8114C181.37 32.4826 185.26 34.8498 188.04 37.7733C189.847 33.3161 191.652 28.7214 192.07 27.0502C192.348 25.7978 192.348 24.4038 192.209 22.8722C191.514 21.7574 190.402 20.505 189.013 19.6694C182.9 25.0998 176.645 30.6697 176.645 30.6697V30.8114Z" fill="url(#paint46_linear)"/>
<path d="M184.01 78.0175C184.01 78.0175 183.731 77.0423 184.289 76.4859C184.844 75.9296 186.929 74.5355 187.902 74.5355C188.876 74.5355 189.986 74.8147 190.682 76.0671C191.377 77.3215 191.238 78.8531 190.267 79.4095L187.765 80.9411C187.071 81.3578 186.516 80.6618 186.516 80.6618C186.516 80.6618 186.794 79.1303 186.1 78.4343C185.405 77.5987 184.711 77.5987 184.154 77.8779L184.01 78.0175Z" fill="#7222E9"/>
<path d="M156.496 3.9368C161.484 3.9368 165.529 7.98977 165.529 12.9888C165.529 17.9878 161.484 22.0407 156.496 22.0407C151.508 22.0407 147.464 17.9878 147.464 12.9888C147.464 7.98977 151.508 3.9368 156.496 3.9368Z" fill="url(#paint47_linear)"/>
<path d="M156.634 10.0631C157.861 10.0631 158.857 11.0613 158.857 12.2907C158.857 13.5222 157.861 14.5183 156.634 14.5183C155.405 14.5183 154.411 13.5201 154.411 12.2907C154.411 11.0613 155.405 10.0631 156.634 10.0631Z" fill="#71B3FF"/>
<path d="M156.517 10.6195C157.766 10.6195 158.687 11.3676 158.687 12.622C158.687 12.9013 158.687 13.0763 158.602 13.4055C158.742 13.1263 158.881 12.7096 158.881 12.2907C158.881 11.0384 157.908 10.0506 156.658 10.0631C155.487 10.0736 154.814 10.7487 154.535 11.5843C155.015 10.905 155.334 10.7821 156.076 10.6299L156.517 10.6195Z" fill="#727DFF"/>
<path d="M158.718 17.0251C159.485 17.0251 160.107 17.6481 160.107 18.417C160.107 19.1859 159.485 19.809 158.718 19.809C157.951 19.809 157.329 19.1859 157.329 18.417C157.329 17.6502 157.951 17.0251 158.718 17.0251Z" fill="#7298FF"/>
<path d="M158.578 17.3043C159.272 17.3043 159.967 17.8606 159.967 18.6962C159.967 18.8359 159.971 18.9588 159.913 19.1172C160.071 18.9817 160.106 18.6963 160.106 18.417C160.106 17.721 159.551 17.0251 158.717 17.0251C158.162 17.0251 157.53 17.4043 157.391 17.9628C157.669 17.546 158.162 17.3043 158.578 17.3043Z" fill="#7367FF"/>
<path d="M151.656 10.9779C152.313 11.3571 152.538 12.199 152.159 12.8575C151.781 13.516 150.941 13.741 150.284 13.3617C149.627 12.9825 149.402 12.1406 149.78 11.4822C150.161 10.8237 150.999 10.5986 151.656 10.9779Z" fill="#7298FF"/>
<path d="M151.355 11.1779C152.05 11.5947 152.152 12.3844 151.875 12.9408C151.802 13.0929 151.64 13.3055 151.445 13.4472C151.998 13.2534 152.106 13.0596 152.245 12.7804C152.551 12.0073 152.28 11.1425 151.586 10.8654C150.998 10.6486 150.474 10.7132 150.056 11.13C150.472 10.8508 150.962 10.9362 151.091 11.0237L151.355 11.1779Z" fill="#7367FF"/>
<path d="M162.747 12.2907C163.515 12.2907 164.136 12.9137 164.136 13.6826C164.136 14.4516 163.515 15.0746 162.747 15.0746C161.98 15.0746 161.358 14.4516 161.358 13.6826C161.358 12.9137 161.98 12.2907 162.747 12.2907Z" fill="#71B3FF"/>
<path d="M162.609 12.5699C163.304 12.5699 163.969 13.0304 163.969 13.866C163.969 14.0056 163.952 14.2849 163.886 14.462C164.075 14.2494 164.137 13.964 164.137 13.6847C164.137 12.9888 163.582 12.2928 162.748 12.2928C162.193 12.2928 161.578 12.6554 161.438 13.2138C161.717 12.7929 162.193 12.5699 162.609 12.5699Z" fill="#7287FF"/>
<path d="M158.717 4.90993C159.639 4.90993 160.385 5.65801 160.385 6.58113C160.385 7.50425 159.639 8.25232 158.717 8.25232C157.796 8.25232 157.05 7.50425 157.05 6.58113C157.05 5.65801 157.796 4.90993 158.717 4.90993Z" fill="#71CBFF"/>
<path d="M158.578 5.18915C159.551 5.18915 160.246 6.02475 160.246 6.86035C160.246 6.99996 160.246 7.13957 160.106 7.41672C160.246 7.13749 160.385 6.86036 160.385 6.58113C160.385 5.60592 159.551 4.90993 158.717 4.90993C157.884 4.90993 157.328 5.4663 157.05 6.16229C157.328 5.60591 157.884 5.32668 158.578 5.32668V5.18915Z" fill="#71B8FF"/>
<path d="M200.685 -4.97558C195.822 -4.13998 192.486 0.454775 193.32 5.32875C194.154 10.2027 198.739 13.5451 203.602 12.7095C208.466 11.8739 211.801 7.27917 210.967 2.40519C210.133 -2.46879 205.548 -5.81118 200.685 -4.97558Z" fill="url(#paint48_linear)"/>
<path d="M200.683 -4.97583C195.82 -4.14023 192.484 0.454522 193.318 5.3285C193.458 6.58086 194.013 7.69568 194.568 8.67089C194.847 8.95012 194.984 9.36687 195.262 9.6461C193.316 4.21575 196.651 1.98819 201.099 -0.93745C203.045 -2.18981 203.6 -3.72347 203.74 -4.97583C203.6 -4.97583 203.461 -4.97583 203.322 -4.97583C203.182 -3.861 202.627 -2.46904 200.82 -1.21668C196.651 1.56934 193.316 3.6573 194.429 8.53128C191.511 0.873362 196.096 0.454521 199.847 -2.32942C201.375 -3.44424 201.236 -4.41738 200.96 -4.97583C200.82 -4.97583 200.681 -4.97583 200.404 -4.97583H200.683ZM199.571 12.43C199.71 12.43 199.989 12.5697 200.126 12.5697C199.431 11.4548 198.876 9.92324 199.571 8.39166C201.099 5.32849 203.74 6.30371 207.63 3.51769C209.158 2.40286 209.853 1.15051 210.131 -0.101849C209.992 -0.241463 209.992 -0.381086 209.853 -0.658229C209.158 2.82378 205.962 4.35537 203.043 5.33059C201.375 5.88696 200.126 6.30579 199.153 8.25413C198.46 9.78363 198.876 11.1777 199.571 12.43ZM205.546 12.1508C205.686 12.1508 205.825 12.0112 205.964 12.0112C206.243 11.1756 206.798 10.2004 208.326 9.36479C209.021 8.94804 209.576 8.52919 210.133 7.8332C210.412 7.41436 210.549 6.858 210.689 6.30162C209.994 7.41645 209.16 8.38958 208.048 8.94804C206.241 9.92325 205.546 11.036 205.407 12.1508H205.546ZM196.098 10.4796C196.793 11.1756 197.627 11.732 198.46 12.0112C197.766 10.7589 197.348 9.36479 198.042 7.69359C199.849 3.09884 204.155 4.90757 207.491 0.86919C208.464 -0.245636 208.603 -1.498 208.464 -2.61282C207.351 -3.72765 206.102 -4.42363 204.573 -4.84039C204.989 -4.00479 205.129 -2.75243 204.158 -1.49799C202.211 1.28803 197.487 1.0088 196.377 6.85799C196.098 8.24996 196.098 9.36479 196.238 10.34L196.098 10.4796ZM200.962 12.8489C201.795 12.9885 202.629 12.9885 203.602 12.8489C204.018 12.8489 204.297 12.7093 204.715 12.5697C203.047 9.64611 210.412 7.41645 210.967 2.68209V2.54248C210.828 1.70688 210.551 0.871274 210.133 0.035675C210.689 2.12363 209.855 4.21367 207.632 5.74526C203.881 8.11244 201.519 6.99761 200.546 9.92325C199.991 11.4548 200.546 12.2904 201.101 12.8468H200.962V12.8489Z" fill="url(#paint49_linear)"/>
<path d="M210.945 1.4696C218.31 3.69717 222.87 6.44361 222.454 8.53157C221.899 11.3176 212.311 11.874 200.917 9.6464C189.522 7.41882 180.769 3.52005 181.324 0.734018C181.742 -1.35394 187.339 -2.1937 194.981 -1.49771C194.719 -1.18098 194.463 -0.943429 194.323 -0.524587C190.015 -0.803815 187.16 -0.378725 187.021 0.736104C186.742 2.4073 193.273 5.19125 201.611 6.72492C210.089 8.2565 217.175 8.25651 217.451 6.4457C217.591 5.33087 215.089 3.79928 211.06 2.54692C210.92 2.26769 210.781 1.4321 210.781 1.4321L210.945 1.4696Z" fill="white" fill-opacity="0.349"/>
<path d="M304.48 32.7618C314.762 34.433 321.711 44.181 320.043 54.4853C318.376 64.7896 308.649 71.7516 298.367 70.0824C288.085 68.4113 281.138 58.6633 282.806 48.359C284.471 38.0526 294.198 31.0906 304.48 32.7618Z" fill="url(#paint50_linear)"/>
<path d="M304.48 32.7619C314.762 34.4331 321.711 44.181 320.043 54.4854C319.627 56.9922 318.654 59.3593 317.403 61.4473C316.985 62.1433 316.429 62.8393 315.874 63.5353C319.904 51.9765 312.818 47.3817 303.37 41.2554C299.34 38.609 298.09 35.2687 297.812 32.7619C298.09 32.7619 298.367 32.6223 298.645 32.6223C298.924 34.9894 300.034 38.0526 303.925 40.5594C312.957 46.4086 319.765 50.8637 317.403 61.1681C323.655 44.8749 313.928 44.0393 305.732 38.1922C302.396 35.825 302.675 33.7371 303.23 32.6223C303.648 32.6223 303.925 32.7619 304.343 32.7619H304.48ZM306.981 69.5241C306.565 69.6637 306.287 69.8033 305.869 69.8033C307.397 67.4361 308.509 64.2333 306.981 61.0305C303.785 54.4854 298.088 56.5754 289.89 50.7262C286.694 48.359 285.165 45.573 284.471 42.9287C284.61 42.5119 284.887 42.2327 285.026 41.8138C286.554 49.1946 293.364 52.2578 299.477 54.3457C303.091 55.6002 305.729 56.4337 307.676 60.6117C309.204 63.8145 308.37 66.8776 306.981 69.3844V69.5241ZM294.335 68.9677C294.056 68.8281 293.78 68.6885 293.362 68.5488C292.946 66.738 291.555 64.6501 288.359 62.9789C286.831 62.2829 285.579 61.0285 284.469 59.7761C283.914 58.8009 283.496 57.6881 283.219 56.5733C284.608 58.9405 286.415 61.0285 288.638 62.1433C292.528 64.0937 293.917 66.738 294.196 68.8281L294.335 68.9677ZM314.344 65.3461C312.816 66.738 311.148 67.8529 309.202 68.6885C310.73 66.0421 311.425 62.9789 310.175 59.6365C306.424 50.0281 297.113 53.7873 290.305 45.1542C288.361 42.6474 287.943 40.1406 288.361 37.913C290.584 35.6854 293.503 34.0142 296.56 33.1786C295.587 34.9894 295.447 37.4962 297.394 40.2802C301.423 46.269 311.566 45.7105 314.067 58.1049C314.623 61.0305 314.623 63.3977 314.344 65.3461ZM303.923 70.22C302.116 70.4993 300.309 70.4993 298.365 70.0804C297.67 69.9408 296.836 69.8012 296.142 69.5241C299.616 63.2581 284.192 58.8009 282.664 48.6362C282.664 48.4965 282.664 48.3569 282.664 48.2194C282.943 46.4086 283.498 44.5978 284.332 43.0662C283.219 47.5234 284.887 51.9786 289.75 55.0417C297.67 60.0553 302.673 57.6881 304.896 63.8145C306.008 67.0173 305.035 68.9677 303.783 70.0804L303.923 70.22Z" fill="url(#paint51_linear)"/>
<path d="M245.844 -0.937208L252.791 -4.97559L256.82 1.98634L249.873 6.02472L245.844 -0.937208Z" stroke="#582CDB" stroke-opacity="0.102" stroke-width="16.0004" stroke-linecap="round" stroke-linejoin="round"/>
<path d="M215.5 140C224.109 140 231 146.891 231 155.5C231 164.109 224.109 171 215.5 171C206.891 171 200 164.109 200 155.5C200 146.891 206.891 140 215.5 140Z" stroke="#0B2EA4" stroke-opacity="0.102" stroke-width="16.0004"/>
<path d="M-7.71313 120.675L-22.8032 68.1778C-23.5594 65.9651 -22.047 63.7413 -19.7897 63C-19.0335 63 -18.2773 63 -17.5211 63L36.7897 76.3097C39.047 77.0509 40.5594 79.2637 39.8032 81.4875C39.8032 82.2288 39.047 82.97 38.2908 83.7002L-0.173723 122.888C-1.68612 124.371 -4.6996 124.371 -6.212 122.888C-6.95691 122.147 -6.95693 121.406 -7.71313 120.675ZM-11.4828 74.8272L0.582491 110.32L24.7131 84.4416L-11.4941 75.5684V74.8272H-11.4828Z" fill="white" fill-opacity="0.102"/>
<path d="M150.105 89.7159C149.689 89.9951 149.271 90.4119 148.716 90.5515C148.994 90.8307 149.132 91.1079 149.41 91.3871C149.965 91.1079 150.383 90.9703 150.799 90.5515L150.342 89.7826L150.105 89.7159Z" fill="#9559EF"/>
<path d="M150.105 89.7159L150.8 90.5515C151.216 90.2723 151.494 89.8555 151.773 89.5763C151.494 89.2971 151.357 89.0199 151.079 88.7407C150.8 89.1595 150.523 89.4367 150.105 89.7159Z" fill="#4F29C2"/>
<path d="M152.328 92.2227C151.913 92.6395 151.495 92.9187 150.939 93.1979C151.218 93.4771 151.355 93.7543 151.634 94.0335C152.189 93.7543 152.607 93.3375 153.023 93.0583L152.328 92.2227Z" fill="#9559EF"/>
<path d="M152.328 92.2227L153.023 93.0583C153.301 92.7791 153.578 92.3623 153.856 92.0831C153.578 91.8039 153.441 91.5267 153.162 91.2475C152.885 91.5267 152.607 91.9435 152.328 92.2227Z" fill="#4F29C2"/>
<path d="M212.357 52.8141L210.654 49.0883C209.541 51.5951 207.77 54.9021 206.381 57.2693C206.381 57.2693 208.604 57.8256 209.716 56.5733C210.828 55.4584 212.357 52.6745 212.357 52.6745V52.8141Z" fill="#FBDC72"/>
</g>
<defs>
<linearGradient id="paint0_linear" x1="8" y1="247" x2="329" y2="-11" gradientUnits="userSpaceOnUse">
<stop stop-color="#702EEB"/>
<stop offset="1" stop-color="#FF22B0"/>
</linearGradient>
<linearGradient id="paint1_linear" x1="269.939" y1="190.283" x2="255.82" y2="245.35" gradientUnits="userSpaceOnUse">
<stop stop-color="#FF9642"/>
<stop offset="1" stop-color="#FF1468"/>
</linearGradient>
<linearGradient id="paint2_linear" x1="263.297" y1="42.3218" x2="271.951" y2="42.6116" gradientUnits="userSpaceOnUse">
<stop stop-color="#F49FBC"/>
<stop offset="1" stop-color="#FFC0D1"/>
</linearGradient>
<linearGradient id="paint3_linear" x1="222.127" y1="4.03216" x2="234.11" y2="0.706594" gradientUnits="userSpaceOnUse">
<stop stop-color="#F49FBC"/>
<stop offset="1" stop-color="#FFC0D1"/>
</linearGradient>
<linearGradient id="paint4_linear" x1="167.635" y1="71.1188" x2="145.833" y2="59.1551" gradientUnits="userSpaceOnUse">
<stop stop-color="#4F29C2"/>
<stop offset="1" stop-color="#7222E9"/>
</linearGradient>
<linearGradient id="paint5_linear" x1="264.658" y1="99.4646" x2="228.625" y2="92.3728" gradientUnits="userSpaceOnUse">
<stop stop-color="#4F29C2"/>
<stop offset="1" stop-color="#7222E9"/>
</linearGradient>
<linearGradient id="paint6_linear" x1="167.7" y1="30.8986" x2="166.629" y2="35.8565" gradientUnits="userSpaceOnUse">
<stop stop-color="#7484FF"/>
<stop offset="1" stop-color="#7222E9"/>
</linearGradient>
<linearGradient id="paint7_linear" x1="204.022" y1="61.2225" x2="208.675" y2="64.263" gradientUnits="userSpaceOnUse">
<stop stop-color="#8067FF"/>
<stop offset="1" stop-color="#7222E9"/>
</linearGradient>
<linearGradient id="paint8_linear" x1="211.339" y1="62.8096" x2="208.98" y2="64.0892" gradientUnits="userSpaceOnUse">
<stop stop-color="#7484FF"/>
<stop offset="1" stop-color="#8067FF"/>
</linearGradient>
<linearGradient id="paint9_linear" x1="207.743" y1="59.1542" x2="207.518" y2="63.7286" gradientUnits="userSpaceOnUse">
<stop stop-color="#53D6FF"/>
<stop offset="1" stop-color="#8067FF"/>
</linearGradient>
<linearGradient id="paint10_linear" x1="203.494" y1="74.0682" x2="207.014" y2="76.3699" gradientUnits="userSpaceOnUse">
<stop stop-color="#8067FF"/>
<stop offset="1" stop-color="#7222E9"/>
</linearGradient>
<linearGradient id="paint11_linear" x1="215.938" y1="71.2899" x2="213.578" y2="72.5695" gradientUnits="userSpaceOnUse">
<stop stop-color="#7484FF"/>
<stop offset="1" stop-color="#8067FF"/>
</linearGradient>
<linearGradient id="paint12_linear" x1="206.608" y1="72.1875" x2="206.433" y2="75.7229" gradientUnits="userSpaceOnUse">
<stop stop-color="#53D6FF"/>
<stop offset="1" stop-color="#8067FF"/>
</linearGradient>
<linearGradient id="paint13_linear" x1="187.391" y1="64.0493" x2="190.573" y2="66.129" gradientUnits="userSpaceOnUse">
<stop stop-color="#8067FF"/>
<stop offset="1" stop-color="#7222E9"/>
</linearGradient>
<linearGradient id="paint14_linear" x1="208.022" y1="56.6959" x2="205.663" y2="57.9755" gradientUnits="userSpaceOnUse">
<stop stop-color="#7484FF"/>
<stop offset="1" stop-color="#8067FF"/>
</linearGradient>
<linearGradient id="paint15_linear" x1="190.228" y1="63.1238" x2="190.084" y2="66.0342" gradientUnits="userSpaceOnUse">
<stop stop-color="#53D6FF"/>
<stop offset="1" stop-color="#8067FF"/>
</linearGradient>
<radialGradient id="paint16_radial" cx="0" cy="0" r="1" gradientUnits="userSpaceOnUse" gradientTransform="translate(224.094 51.3707) scale(30.318 30.3837)">
<stop stop-color="#47F2FF"/>
<stop offset="1" stop-color="#9E1DFF"/>
</radialGradient>
<radialGradient id="paint17_radial" cx="0" cy="0" r="1" gradientUnits="userSpaceOnUse" gradientTransform="translate(195.051 39.7194) scale(21.4836 21.5302)">
<stop stop-color="#47F2FF"/>
<stop offset="1" stop-color="#9E1DFF"/>
</radialGradient>
<linearGradient id="paint18_linear" x1="241.361" y1="76.1956" x2="235.128" y2="104.192" gradientUnits="userSpaceOnUse">
<stop stop-color="#7222E9"/>
<stop offset="1" stop-color="#4F29C2"/>
</linearGradient>
<linearGradient id="paint19_linear" x1="241.602" y1="92.8455" x2="245.054" y2="95.1009" gradientUnits="userSpaceOnUse">
<stop stop-color="#8067FF"/>
<stop offset="1" stop-color="#7222E9"/>
</linearGradient>
<linearGradient id="paint20_linear" x1="232.341" y1="101.533" x2="229.981" y2="102.813" gradientUnits="userSpaceOnUse">
<stop stop-color="#7484FF"/>
<stop offset="1" stop-color="#8067FF"/>
</linearGradient>
<linearGradient id="paint21_linear" x1="243.463" y1="94.9554" x2="248.518" y2="98.2595" gradientUnits="userSpaceOnUse">
<stop stop-color="#8067FF"/>
<stop offset="1" stop-color="#7222E9"/>
</linearGradient>
<linearGradient id="paint22_linear" x1="251.723" y1="95.8653" x2="248.923" y2="97.3836" gradientUnits="userSpaceOnUse">
<stop stop-color="#7484FF"/>
<stop offset="1" stop-color="#8067FF"/>
</linearGradient>
<linearGradient id="paint23_linear" x1="247.592" y1="90.9912" x2="247.293" y2="97.0392" gradientUnits="userSpaceOnUse">
<stop stop-color="#53D6FF"/>
<stop offset="1" stop-color="#8067FF"/>
</linearGradient>
<linearGradient id="paint24_linear" x1="237.092" y1="91.1341" x2="234.462" y2="92.854" gradientUnits="userSpaceOnUse">
<stop stop-color="#8067FF"/>
<stop offset="1" stop-color="#7222E9"/>
</linearGradient>
<linearGradient id="paint25_linear" x1="234.721" y1="91.3377" x2="230.675" y2="93.5308" gradientUnits="userSpaceOnUse">
<stop stop-color="#7484FF"/>
<stop offset="1" stop-color="#8067FF"/>
</linearGradient>
<linearGradient id="paint26_linear" x1="230.174" y1="93.2714" x2="235.229" y2="96.5756" gradientUnits="userSpaceOnUse">
<stop stop-color="#8067FF"/>
<stop offset="1" stop-color="#7222E9"/>
</linearGradient>
<linearGradient id="paint27_linear" x1="229.763" y1="94.1975" x2="226.963" y2="95.7158" gradientUnits="userSpaceOnUse">
<stop stop-color="#7484FF"/>
<stop offset="1" stop-color="#8067FF"/>
</linearGradient>
<linearGradient id="paint28_linear" x1="231.17" y1="89.2992" x2="231.469" y2="95.358" gradientUnits="userSpaceOnUse">
<stop stop-color="#53D6FF"/>
<stop offset="1" stop-color="#8067FF"/>
</linearGradient>
<linearGradient id="paint29_linear" x1="161.779" y1="58.4789" x2="155.546" y2="86.4756" gradientUnits="userSpaceOnUse">
<stop stop-color="#7222E9"/>
<stop offset="1" stop-color="#4F29C2"/>
</linearGradient>
<linearGradient id="paint30_linear" x1="234.474" y1="90.8844" x2="230.429" y2="93.0773" gradientUnits="userSpaceOnUse">
<stop stop-color="#7484FF"/>
<stop offset="1" stop-color="#8067FF"/>
</linearGradient>
<linearGradient id="paint31_linear" x1="244.764" y1="85.8493" x2="248.462" y2="83.9162" gradientUnits="userSpaceOnUse">
<stop stop-color="#7222E9"/>
<stop offset="1" stop-color="#8067FF"/>
</linearGradient>
<linearGradient id="paint32_linear" x1="239.755" y1="78.6148" x2="244.81" y2="81.9189" gradientUnits="userSpaceOnUse">
<stop stop-color="#8067FF"/>
<stop offset="1" stop-color="#7222E9"/>
</linearGradient>
<linearGradient id="paint33_linear" x1="246.61" y1="80.3152" x2="246.909" y2="86.3727" gradientUnits="userSpaceOnUse">
<stop stop-color="#53D6FF"/>
<stop offset="1" stop-color="#8067FF"/>
</linearGradient>
<linearGradient id="paint34_linear" x1="227.203" y1="86.8312" x2="230.873" y2="84.9146" gradientUnits="userSpaceOnUse">
<stop stop-color="#7222E9"/>
<stop offset="1" stop-color="#8067FF"/>
</linearGradient>
<linearGradient id="paint35_linear" x1="223.261" y1="83.2676" x2="228.316" y2="86.5717" gradientUnits="userSpaceOnUse">
<stop stop-color="#8067FF"/>
<stop offset="1" stop-color="#7222E9"/>
</linearGradient>
<linearGradient id="paint36_linear" x1="228.405" y1="80.1109" x2="228.704" y2="86.17" gradientUnits="userSpaceOnUse">
<stop stop-color="#53D6FF"/>
<stop offset="1" stop-color="#8067FF"/>
</linearGradient>
<radialGradient id="paint37_radial" cx="0" cy="0" r="1" gradientUnits="userSpaceOnUse" gradientTransform="translate(153.833 37.9835) scale(8.05881 8.07632)">
<stop stop-color="#47F2FF"/>
<stop offset="1" stop-color="#9E1DFF"/>
</radialGradient>
<radialGradient id="paint38_radial" cx="0" cy="0" r="1" gradientUnits="userSpaceOnUse" gradientTransform="translate(173.009 45.5035) scale(10.4561 10.4787)">
<stop stop-color="#47F2FF"/>
<stop offset="1" stop-color="#9E1DFF"/>
</radialGradient>
<radialGradient id="paint39_radial" cx="0" cy="0" r="1" gradientUnits="userSpaceOnUse" gradientTransform="translate(154.714 49.3093) scale(7.77986 7.79675)">
<stop stop-color="#47F2FF"/>
<stop offset="1" stop-color="#9E1DFF"/>
</radialGradient>
<radialGradient id="paint40_radial" cx="0" cy="0" r="1" gradientUnits="userSpaceOnUse" gradientTransform="translate(171.342 38.1228) scale(8.30163 8.31963)">
<stop stop-color="#47F2FF"/>
<stop offset="1" stop-color="#9E1DFF"/>
</radialGradient>
<linearGradient id="paint41_linear" x1="157.114" y1="44.3236" x2="153.721" y2="37.5058" gradientUnits="userSpaceOnUse">
<stop stop-color="#25E0F9"/>
<stop offset="1" stop-color="#FEFEFE"/>
</linearGradient>
<linearGradient id="paint42_linear" x1="172.256" y1="43.5658" x2="171.502" y2="39.2999" gradientUnits="userSpaceOnUse">
<stop stop-color="#25E0F9"/>
<stop offset="1" stop-color="#FEFEFE"/>
</linearGradient>
<linearGradient id="paint43_linear" x1="174.455" y1="53.6425" x2="172.582" y2="48.2855" gradientUnits="userSpaceOnUse">
<stop stop-color="#25E0F9"/>
<stop offset="1" stop-color="#FEFEFE"/>
</linearGradient>
<linearGradient id="paint44_linear" x1="156.472" y1="54.0927" x2="155.261" y2="48.7073" gradientUnits="userSpaceOnUse">
<stop stop-color="#25E0F9"/>
<stop offset="1" stop-color="#FEFEFE"/>
</linearGradient>
<linearGradient id="paint45_linear" x1="242.754" y1="79.0518" x2="261.159" y2="103.58" gradientUnits="userSpaceOnUse">
<stop stop-color="#7222E9"/>
<stop offset="1" stop-color="#8067FF"/>
</linearGradient>
<linearGradient id="paint46_linear" x1="152.99" y1="28.0173" x2="180.321" y2="52.6522" gradientUnits="userSpaceOnUse">
<stop stop-color="#8067FF"/>
<stop offset="1" stop-color="#7222E9"/>
</linearGradient>
<linearGradient id="paint47_linear" x1="160.02" y1="6.70892" x2="152.965" y2="19.226" gradientUnits="userSpaceOnUse">
<stop stop-color="#71CBFF"/>
<stop offset="1" stop-color="#7449FF"/>
</linearGradient>
<linearGradient id="paint48_linear" x1="207.659" y1="10.3456" x2="197.322" y2="-1.74633" gradientUnits="userSpaceOnUse">
<stop stop-color="#9041FF"/>
<stop offset="1" stop-color="#FF58FC"/>
</linearGradient>
<linearGradient id="paint49_linear" x1="207.858" y1="15.5737" x2="199.934" y2="-0.497088" gradientUnits="userSpaceOnUse">
<stop stop-color="#9041FF"/>
<stop offset="1" stop-color="#FF58FC"/>
</linearGradient>
<linearGradient id="paint50_linear" x1="289.76" y1="65.1902" x2="311.587" y2="39.5335" gradientUnits="userSpaceOnUse">
<stop stop-color="#6B28DC"/>
<stop offset="1" stop-color="#CC3BC9"/>
</linearGradient>
<linearGradient id="paint51_linear" x1="289.223" y1="76.2033" x2="305.928" y2="42.1133" gradientUnits="userSpaceOnUse">
<stop stop-color="#6B28DC"/>
<stop offset="1" stop-color="#CC3BC9"/>
</linearGradient>
</defs>
</svg>
