<svg width="64" height="64" viewBox="0 0 64 64" fill="none" xmlns="http://www.w3.org/2000/svg">
<mask id="mask0" mask-type="alpha" maskUnits="userSpaceOnUse" x="0" y="0" width="64" height="64">
<rect width="64" height="64" rx="20" fill="url(#paint0_linear)"/>
</mask>
<g mask="url(#mask0)">
<rect width="64" height="64" rx="20" fill="url(#paint1_linear)"/>
<path d="M-21.7057 76.8223L-44.7002 -4.93617C-45.8525 -8.38226 -43.5478 -11.8456 -40.1081 -13C-38.9558 -13 -37.8036 -13 -36.6513 -13L46.1081 7.72816C49.5478 8.88259 51.8525 12.3287 50.7002 15.792C50.7002 16.9464 49.5479 18.1009 48.3956 19.2381L-10.2171 80.2683C-12.5217 82.5772 -17.1137 82.5772 -19.4183 80.2683C-20.5534 79.1139 -20.5534 77.9595 -21.7057 76.8223ZM-27.45 5.41934L-9.06478 60.6945L27.7057 20.3926L-27.4672 6.57375V5.41934H-27.45Z" fill="url(#paint2_linear)"/>
<path d="M56 37C38.2222 37 24 51.2222 24 69C24 86.7778 38.2222 101 56 101C73.7778 101 88 86.7778 88 69C88 51.2222 73.7778 37 56 37Z" stroke="url(#paint3_linear)" stroke-opacity="0.2" stroke-width="8"/>
<path d="M44 28.9217L40.7122 17L28.4741 20.1731L26.6509 23.292L22.9774 23.2649L14 31.9865L22.9774 40.708L26.6509 40.6809L28.4741 43.7998L40.7122 47L44 35.1054L42.1497 32.0135L44 28.9217ZM26.9553 23.7888L36.3214 21.4436L30.9332 30.4962H20.1597L26.9553 23.7888ZM26.9553 40.154L20.1868 33.4466H30.9603L36.3486 42.4992L26.9553 40.154ZM38.9463 41.0361L33.558 31.9865L38.9463 22.9338L41.5439 31.9865L38.9463 41.0361Z" fill="white"/>
</g>
<defs>
<linearGradient id="paint0_linear" x1="64" y1="-1.90735e-06" x2="-5.72205e-06" y2="64" gradientUnits="userSpaceOnUse">
<stop stop-color="#FF7EBE"/>
<stop offset="1" stop-color="#7222E9"/>
</linearGradient>
<linearGradient id="paint1_linear" x1="64" y1="-1.90735e-06" x2="-5.72205e-06" y2="64" gradientUnits="userSpaceOnUse">
<stop stop-color="#FF7EBE"/>
<stop offset="1" stop-color="#7222E9"/>
</linearGradient>
<linearGradient id="paint2_linear" x1="10.4667" y1="58.5169" x2="93.7297" y2="-31.6215" gradientUnits="userSpaceOnUse">
<stop stop-color="#6B28DC" stop-opacity="0"/>
<stop offset="1" stop-color="#7222E9"/>
</linearGradient>
<linearGradient id="paint3_linear" x1="72" y1="40.3333" x2="30.6667" y2="74.3333" gradientUnits="userSpaceOnUse">
<stop stop-color="white"/>
<stop offset="1" stop-color="white" stop-opacity="0"/>
</linearGradient>
</defs>
</svg>
