<svg width="64" height="64" viewBox="0 0 64 64" fill="none" xmlns="http://www.w3.org/2000/svg">
<mask id="mask0" mask-type="alpha" maskUnits="userSpaceOnUse" x="0" y="0" width="64" height="64">
<rect width="64" height="64" rx="20" fill="#0A3875"/>
</mask>
<g mask="url(#mask0)">
<rect width="64" height="64" rx="20" fill="url(#paint0_linear)"/>
<path fill-rule="evenodd" clip-rule="evenodd" d="M81.9451 -6.93301C85.774 -9.13771 90.6652 -7.82112 92.8701 -3.99229L123.933 49.9506C124.992 51.7894 125.277 53.9735 124.725 56.0224C124.174 58.0713 122.831 59.8172 120.992 60.876L67.0554 91.933C63.2265 94.1377 58.3353 92.8211 56.1304 88.9923L25.0673 35.0494C24.0085 33.2106 23.7235 31.0265 24.275 28.9776C24.8265 26.9287 26.1694 25.1828 28.0082 24.124L81.9451 -6.93301ZM42.9255 33.9979L66.004 74.0751L106.075 51.0021L82.9965 10.9249L42.9255 33.9979Z" fill="url(#paint1_linear)" fill-opacity="0.8"/>
<path d="M37.1897 35.468C37.1994 35.4512 37.2091 35.4344 37.2186 35.4175L37.189 35.4676L37.1897 35.468Z" fill="white"/>
<path d="M31.1005 38.9705C33.7053 38.9705 35.9784 37.5608 37.1897 35.468L43.3175 38.9926C40.9055 43.1381 36.4142 45.9425 31.2578 45.9985L31.1005 46C25.8685 46 21.3014 43.1705 18.8672 38.9676C17.6798 36.9147 17 34.5362 17 32C17 24.2676 23.3126 18 31.1005 18C36.2999 18 40.8417 20.7956 43.2863 24.9514L37.1489 28.4602C35.9407 26.428 33.7232 25.056 31.1807 25.028H31.1005C27.2221 25.028 24.0785 28.1478 24.0785 31.9985C24.0785 33.2571 24.4169 34.4375 25.0046 35.4573C26.2158 37.5558 28.4912 38.9705 31.1005 38.9705Z" fill="white"/>
<path d="M43.2862 24.9528C43.29 24.9595 43.294 24.9661 43.2981 24.9727L43.2862 24.9528Z" fill="white"/>
<path fill-rule="evenodd" clip-rule="evenodd" d="M47 30.9507V29.9575H45.0007V27.9724H44.0003V29.9575H42.001V27.9724H41.0006V29.9575H39.0013V30.9507H41.0006V32.9358H39.0013V33.9291H41.0006V35.9141H42.001V33.9291H44.0003V35.9141H45.0007V33.9291H47V32.9358H45.0007V30.9507H47ZM44.0003 32.9358H42.001V30.9507H44.0003V32.9358Z" fill="white"/>
</g>
<defs>
<linearGradient id="paint0_linear" x1="-11" y1="69" x2="64" y2="-11" gradientUnits="userSpaceOnUse">
<stop stop-color="#633DDF"/>
<stop offset="1" stop-color="#53D6FF"/>
</linearGradient>
<linearGradient id="paint1_linear" x1="30" y1="70" x2="108.548" y2="20.8769" gradientUnits="userSpaceOnUse">
<stop stop-color="#6B28DC" stop-opacity="0"/>
<stop offset="1" stop-color="#5E35D9"/>
</linearGradient>
</defs>
</svg>
