<svg width="280" height="180" viewBox="0 0 280 180" fill="none" xmlns="http://www.w3.org/2000/svg">
<mask id="mask0" mask-type="alpha" maskUnits="userSpaceOnUse" x="0" y="0" width="280" height="180">
<path d="M0 16C0 7.16344 7.16344 0 16 0H264C272.837 0 280 7.16344 280 16V164C280 172.837 272.837 180 264 180H16C7.16344 180 0 172.837 0 164V16Z" fill="url(#paint0_linear)"/>
</mask>
<g mask="url(#mask0)">
<path d="M0 0H280V180H0V0Z" fill="url(#paint1_linear)"/>
<path d="M-9.27693 1C-43.3143 16.4975 -68.5839 45.4025 -71.7179 94.4147C-83.2038 272.863 259.695 306.589 300 160.391C261.577 111.172 190.574 152.014 139.203 138.189C78.0136 121.853 78.8496 74.0969 31.8645 25.5061C19.7485 12.937 5.34292 5.39896 -9.27693 1Z" fill="url(#paint2_linear)"/>
<path d="M150.193 109.134C150.193 109.134 152.621 88.0989 154.353 85.3409C156.261 82.5829 163.365 75.1692 168.045 71.7194C172.725 68.2697 173.245 66.3749 174.109 66.3749C174.977 66.2035 174.457 67.0636 173.937 68.0983C173.417 69.1329 172.725 71.7194 169.777 76.8925C166.829 82.0656 155.393 86.5469 154.701 87.753C154.009 88.959 152.273 103.615 152.273 103.615L150.366 109.306L150.193 109.134Z" fill="url(#paint3_linear)"/>
<path d="M149.846 100.168H148.806C149.154 96.7217 149.326 92.9261 149.498 92.2373C149.846 90.8568 152.446 88.0989 154.178 86.2041C155.91 84.4807 159.722 73.4458 159.722 70.1705C159.722 66.7238 163.014 58.101 163.014 58.101C162.147 56.8949 160.935 58.9642 160.067 59.9988C159.199 61.2048 154.347 69.8246 152.963 72.7571C151.75 75.8609 149.843 83.792 149.151 85.1695C148.631 86.0326 147.938 94.6524 147.591 100.168H146.551L146.203 91.72H145.335L145.163 100.168H143.603L142.043 90.1681L139.791 90.3395L142.219 100.165H141.871L142.911 111.372C146.375 111.372 149.843 111.372 153.307 111.372L154.347 100.165H152.44C153.48 97.9247 155.732 93.0975 155.904 92.9231C156.252 92.7516 156.772 93.0945 157.116 93.6118C157.464 94.1291 157.464 97.233 158.329 98.6105C159.369 100.162 159.889 100.851 160.929 102.232C161.796 103.784 162.661 105.164 163.008 105.335C163.356 105.681 164.396 106.542 164.568 105.853C164.568 105.164 163.876 104.818 163.701 104.301C163.528 103.955 162.833 100.68 162.833 100.68C162.833 100.68 161.273 95.1637 160.233 92.7486C159.193 90.3335 156.769 89.9907 156.249 90.1621C155.901 90.3335 152.957 97.23 151.744 99.9879H151.052C152.44 96.3668 154.692 89.9876 155.212 89.2989C155.904 88.2643 166.304 85.6777 169.596 81.5393C172.716 77.4008 173.58 75.3316 174.276 74.4714C174.796 73.6082 175.488 73.0909 174.623 73.0909C173.759 73.0909 173.236 74.6428 168.731 77.0549C164.227 79.6415 157.119 85.1574 155.215 87.3981C154.175 88.6041 151.923 94.8118 150.19 99.9849H149.671L149.846 100.168Z" fill="#CDEEFF"/>
<path d="M57.653 162.582L38.0693 173.96C38.0693 176.201 47.2535 177.924 58.5176 177.924C69.7817 177.924 78.9659 176.201 78.9659 173.96L59.3822 162.582L58.5146 159.136L57.653 162.582Z" fill="#8B7AF5"/>
<path d="M60.9458 139.306H56.0938V166.546H60.9458V139.306Z" fill="#8B7AF5"/>
<path d="M56.0938 139.306H60.9458V149.132L56.0938 147.755V139.306Z" fill="#0B2EA4"/>
<path d="M75.6764 130.858L76.7164 127.065C76.7164 127.065 56.2681 104.653 56.0928 102.412C55.9205 99.997 46.5609 62.9312 43.9611 58.6213C41.1889 54.3114 25.765 59.31 25.765 59.8274C25.765 60.5161 24.2051 67.4125 24.2051 67.4125C24.2051 67.4125 29.2295 85.8612 29.2295 95.8585C29.2295 99.997 28.8818 103.961 28.7095 107.928C28.7095 107.928 27.3219 124.479 35.6415 134.308C44.1334 144.134 49.8531 142.756 58.8619 142.756C67.8708 142.756 78.9656 142.756 78.9656 142.756C78.9656 142.756 81.5655 142.41 81.5655 139.998C81.5655 137.583 81.5655 132.239 81.5655 132.239L75.5011 131.032L75.6764 130.858Z" fill="#A79BFF"/>
<path d="M75.6772 130.858L76.7171 127.065C76.7171 127.065 56.2688 104.653 56.0935 102.412C55.9212 99.997 46.5616 62.9312 43.9618 58.6213C41.8819 55.346 32.87 57.4153 28.3656 58.7927C27.498 62.9312 26.978 67.4125 26.8057 71.7225C26.8057 71.7225 32.1777 74.9977 34.2576 72.2398C36.1652 69.4818 38.2421 68.79 38.2421 68.79C38.2421 68.79 34.6022 75.1692 35.1222 80.6851C35.6422 86.2011 34.4299 83.789 34.4299 83.789L34.0823 81.2024C34.0823 81.2024 41.7065 87.753 42.5742 89.3049C43.6141 90.6854 44.6541 96.0299 42.7465 102.063C40.8389 108.096 36.8545 114.821 37.7221 120.683C38.2421 124.476 39.282 128.786 40.322 131.372C40.4943 131.89 40.5729 132.187 40.5729 132.705C41.7851 133.393 43.6141 133.787 44.4818 133.787L46.1203 133.827L56.0935 133.959H81.5692V132.236L75.5048 131.029L75.6772 130.858Z" fill="url(#paint4_linear)"/>
<path d="M28.7134 61.8936H23.8613C26.1135 65.8576 30.4456 74.4804 31.4856 83.6175C32.8732 95.8585 36.8576 124.822 36.8576 124.822C36.8576 124.822 37.03 126.72 37.5499 128.786C38.9375 132.924 42.0544 133.613 43.6143 133.784H44.4819C42.0544 130.852 41.3621 124.647 41.3621 124.647C41.3621 124.647 37.3776 95.6841 35.99 83.4431C34.9501 74.4774 30.618 65.8576 28.3657 61.7191L28.7134 61.8936Z" fill="#C5BBFF"/>
<path d="M66.1445 79.9964L76.541 85.5123C76.541 85.5123 80.0055 96.3728 80.7008 98.0992C81.3931 99.6511 82.6084 100.168 83.9929 100.857C85.2052 101.546 98.8968 108.442 98.8968 108.442C98.8968 108.442 101.669 107.408 104.441 108.271C107.213 109.134 109.466 112.409 109.466 112.409H93.0018L76.018 105.859C76.018 105.859 73.5904 104.824 72.3782 101.549C71.1659 98.2736 64.0586 81.031 64.0586 81.031L66.3108 80.1678L66.1445 79.9964Z" fill="#FFC0D1"/>
<path d="M66.1445 79.9964L76.541 85.5123C76.541 85.5123 77.061 87.0643 77.5809 88.9591C77.061 89.4764 76.541 89.8222 76.021 90.1651C73.5935 91.8885 73.0735 92.4058 73.0735 92.7517C73.0735 93.0975 74.9811 100.683 76.8856 103.958C77.5779 105.164 78.2732 106.199 78.9655 106.89L76.018 105.684C76.018 105.684 73.5904 104.65 72.3782 101.374C71.1659 98.0992 64.0586 80.8566 64.0586 80.8566L66.3108 79.9934H66.1445V79.9964Z" fill="url(#paint5_linear)"/>
<path d="M85.7255 97.9277C85.7255 97.9277 84.6855 97.9277 84.6855 96.3758C84.6855 94.8239 89.7099 50.6872 89.7099 50.6872C89.7099 50.6872 89.8823 49.1353 91.6175 49.1353C111.893 49.1353 132.169 49.1353 152.445 49.1353C152.445 49.1353 153.485 49.1353 153.485 50.6872C153.485 51.5504 151.925 65.3433 150.538 77.4098V77.5813C150.538 77.5813 150.538 79.3046 151.578 80.5137C151.75 80.6851 151.75 80.8596 151.925 81.031C152.445 81.7197 152.445 82.237 152.445 82.9288C152.445 83.792 151.233 96.3758 151.233 96.3758C151.233 96.3758 150.713 97.9277 148.113 97.9277H144.821H85.3809H85.7255Z" fill="#CFD2FF"/>
<path d="M124.893 97.9277H113.629V88.1019L122.118 90.514L124.893 97.9277Z" fill="#A4A9EB"/>
<path d="M115.362 91.5486L114.842 86.5499H129.05L137.022 112.066H120.906L115.362 91.5486Z" fill="#DFD7FF"/>
<path d="M120.561 111.203H122.465L114.841 86.5499L113.629 88.1019L120.561 111.203Z" fill="#CFD2FF"/>
<path d="M90.9255 83.9634H152.446C152.793 79.6535 151.058 81.7227 150.538 77.4128C150.538 77.067 150.538 76.7241 150.538 76.7241H87.8057C87.978 81.2054 90.7532 81.2054 90.7532 83.9664H90.9255V83.9634Z" fill="#DFD7FF"/>
<path d="M156.434 113.101L176.362 187.064C176.362 187.064 176.71 188.27 175.842 188.27C174.975 188.27 174.63 187.753 174.282 187.236C173.935 186.547 148.114 112.584 148.114 112.584L156.434 113.273V113.101Z" fill="#F5BEA4"/>
<path d="M91.6168 112.927L76.7129 168.441C76.7129 168.441 76.5406 169.304 77.0606 169.304C77.7529 169.304 77.9282 168.958 78.2728 168.441C78.6175 167.924 97.8565 112.409 97.8565 112.409L91.6168 112.927Z" fill="#DB9A7D"/>
<path d="M141.874 112.927L156.778 168.441C156.778 168.441 156.951 169.304 156.431 169.304C155.738 169.304 155.563 168.958 155.218 168.441C154.874 167.924 135.635 112.409 135.635 112.409L141.874 112.927Z" fill="#DB9A7D"/>
<path d="M86.9403 178.27C86.9403 178.27 82.4359 179.993 81.9159 180.685C81.3959 181.374 81.5682 181.891 82.0882 181.891C82.6082 181.891 106.176 181.891 106.176 181.891C106.176 181.891 106.869 181.545 107.044 181.028C107.044 180.511 107.044 179.13 104.444 178.27C102.712 177.753 101.497 177.407 100.804 177.407L100.284 178.096L99.2443 178.441L97.6844 179.993L87.1126 178.27H86.9403Z" fill="#0B2EA4"/>
<path d="M154.177 173.443L161.282 173.614C161.282 173.614 161.974 173.443 163.709 173.96C165.441 174.477 167.694 176.201 168.041 177.235C168.389 178.27 167.174 180.682 163.017 180.857C158.86 181.031 153.833 179.65 150.021 179.133C146.208 178.616 147.073 175.169 147.593 174.477C148.113 173.789 154.177 173.271 154.177 173.271V173.443Z" fill="#0B2EA4"/>
<path d="M145.341 165.858L141.009 169.304C141.009 169.304 143.781 172.408 144.649 173.786C145.516 174.992 146.036 177.407 150.193 177.578C154.177 177.75 155.565 177.924 156.605 177.924C157.297 177.924 158.337 174.649 161.109 173.614C161.109 173.614 154.87 171.716 152.618 171.374C150.365 171.031 145.166 165.858 145.166 165.858H145.341Z" fill="#FFC0D1"/>
<path d="M141.181 169.65C141.701 170.339 143.261 172.065 144.129 173.271C146.036 173.617 147.941 173.617 149.328 173.1C150.368 172.583 150.888 171.894 151.236 171.031C149.676 170.167 147.771 168.616 146.556 167.409L141.012 169.825L141.181 169.65Z" fill="url(#paint6_linear)"/>
<path d="M89.7137 169.476L91.966 175.509C91.966 175.509 92.4859 176.715 94.9135 177.232C97.341 177.921 100.113 178.096 100.113 178.096L98.0333 180.682H83.1294C83.1294 180.682 81.5695 180.165 81.7418 178.959C81.9141 177.578 84.1694 171.891 84.1694 171.891L89.3691 169.476H89.7137Z" fill="#FFC0D1"/>
<path d="M89.7143 169.476L91.9665 175.509C91.9665 175.509 92.3142 176.372 94.2187 177.061C94.2187 177.061 89.019 179.13 83.127 175.855C83.8192 173.957 84.5146 172.062 84.5146 172.062L89.7143 169.647V169.476Z" fill="url(#paint7_linear)"/>
<path d="M81.9126 126.548L65.9688 113.444L69.4332 110.169L69.2609 106.722L100.453 114.307C100.453 114.307 107.558 116.376 110.677 118.617C113.625 120.858 113.45 126.031 111.025 131.893C108.773 137.754 91.7891 175.341 91.7891 175.341C91.7891 175.341 89.1892 176.029 86.5893 175.512C83.9895 174.995 82.9495 174.649 82.9495 174.649C82.9495 174.649 85.8971 150.684 89.1892 144.651C92.6537 138.618 95.9489 132.581 96.2935 131.547C96.6412 130.341 81.5619 126.548 81.5619 126.548H81.9126Z" fill="#A1D5FF"/>
<path d="M59.9056 101.032L47.6015 107.757C47.6015 107.757 44.137 118.963 56.2657 125.688C68.3975 132.239 101.15 140.861 104.79 143.102C108.429 145.171 109.989 149.653 119.693 157.241C129.225 165 142.049 172.068 142.049 172.068C142.049 172.068 143.782 172.24 146.554 171.034C149.326 169.828 149.846 168.276 149.846 168.276L117.961 135.685C117.961 135.685 113.977 130.512 106.525 127.408C99.0729 124.304 69.0928 106.719 69.0928 106.719L59.7363 100.857L59.9056 101.032Z" fill="#BDE9FF"/>
<path d="M48.2944 100.343L47.7744 107.757C47.7744 107.757 51.5866 109.654 58.5185 109.308C65.4505 108.963 69.435 106.722 69.435 106.722V101.377L48.4667 100.171L48.2944 100.343Z" fill="#FFCC76"/>
<path d="M67.8769 89.4793C67.8769 89.4793 73.4213 87.4101 75.1566 86.3755C76.8888 85.3409 76.8888 85.3409 76.8888 85.3409C75.5012 81.3769 72.5567 73.6172 68.0493 70.5134C66.6617 69.4788 61.8096 68.0983 61.8096 68.0983L67.8769 89.4793Z" fill="#FFCC76"/>
<path d="M50.797 59.3311C50.797 59.3311 52.7046 58.8138 52.8769 59.1596C53.2246 59.5055 54.0892 61.9176 54.0892 61.9176C54.0892 61.9176 58.5936 65.0215 59.1136 66.7448C59.6335 68.4682 59.6335 68.6426 59.6335 68.6426L63.2733 69.1599C63.2733 69.1599 65.0056 69.8487 65.7009 70.7119C66.3932 71.5751 67.9531 73.4698 69.513 75.7105C71.2453 77.9512 73.3252 80.3663 73.4975 84.1589C73.6698 87.9515 72.6299 90.0207 71.4176 91.9185C70.2053 93.6419 70.03 97.263 69.8577 99.1608C69.8577 101.059 69.6854 104.159 69.6854 104.159C61.8857 104.848 54.5336 105.787 46.734 104.923C46.734 104.923 48.1971 96.2314 48.7171 90.541C49.2371 84.8506 46.4649 82.9528 45.9449 82.2611C45.2526 81.5723 39.3606 77.088 39.3606 77.088C39.3606 77.088 39.0129 70.0201 44.0404 63.9838C49.2401 57.7761 50.4524 59.1566 50.4524 59.1566L50.797 59.3311Z" fill="#F7E86E"/>
<path d="M72.902 88.7906C72.5544 89.9967 71.8621 90.8599 71.3421 91.8945C70.1298 93.6178 69.9545 97.239 69.7822 99.1368C69.7822 101.035 69.6098 104.135 69.6098 104.135C65.2777 106.722 51.0661 107.068 46.3894 104.824C46.3894 104.824 47.777 96.3758 48.297 90.6854C48.8169 84.995 46.3894 82.9258 45.8694 82.237C45.1771 81.5483 39.2851 77.064 39.2851 77.064C39.2851 77.064 38.9374 71.7194 42.4049 66.2035L47.6047 62.7568C47.6047 62.7568 52.1091 72.9285 53.3244 76.0323C54.5397 79.1362 53.3244 84.4807 55.9243 87.9274C58.5241 91.3742 63.2039 88.7906 65.2808 88.2733C67.3576 87.5846 70.3052 89.9967 72.902 88.7906Z" fill="#FBDC72"/>
<path d="M56.0923 63.2741C56.7846 63.7914 57.4799 64.3087 57.9999 64.9974C58.3475 65.5147 58.6922 66.032 59.0398 66.5493C59.5598 68.2727 59.5598 68.4471 59.5598 68.4471L60.2521 68.6186C60.5998 69.3073 60.9444 69.8246 60.9444 69.8246L61.292 68.79L63.0243 69.1359C63.0243 69.1359 64.2365 69.4818 64.9319 70.1705C65.6241 74.1345 57.8276 81.031 55.5754 65.3433C55.403 63.9628 55.5754 63.2741 55.923 63.2741H56.0923Z" fill="white"/>
<path d="M39.2854 77.067C39.2854 77.067 38.9377 69.9991 43.9652 63.9628C44.8328 62.9282 45.6974 61.8936 46.3927 61.3763C46.7404 61.3763 46.9127 61.3763 46.9127 61.3763C46.565 61.0304 45.5251 70.8593 45.5251 70.8593C45.5251 70.8593 42.6441 73.7075 39.8719 76.4654L39.2854 77.067Z" fill="#FFCC76"/>
<path d="M57.3054 42.9306C57.3054 42.9306 54.7055 36.38 48.2935 38.7921C41.8815 41.2042 43.2691 42.4133 35.6418 39.6553C28.0176 37.0688 20.9103 42.0704 21.2579 49.3097C21.6056 56.5521 17.0981 55.8603 10.8615 60.3447C4.62177 64.826 1.32961 73.1029 6.70167 81.034C12.0737 88.9651 24.8977 86.2071 29.0575 79.9994C33.2173 73.6202 27.3253 66.5524 38.414 63.6199C49.6781 60.6875 44.1337 46.7232 53.1456 47.0691C62.1575 47.415 57.4777 42.9306 57.4777 42.9306H57.3054Z" fill="#85146C"/>
<path d="M60.2537 54.6542L55.5739 56.3776C55.5739 56.3776 52.4541 53.9625 52.4541 47.069C52.4541 40.1756 59.3861 34.6567 67.358 36.8973C75.3299 39.138 74.29 47.5864 73.4223 53.7941L68.2226 50.8616L60.0784 54.6542H60.2537Z" fill="#85146C"/>
<path d="M51.5886 0.688742C51.5886 0.688742 50.3763 0.171434 50.0287 0.517309C49.681 0.863183 48.8164 3.44973 48.8164 4.65578C48.8164 5.86183 48.9887 6.2077 49.3364 6.72501C49.684 7.07089 50.0287 7.24232 50.0287 7.24232C50.0287 7.24232 49.8563 8.44837 49.8563 10.0003C50.0287 11.3808 50.8963 12.5868 50.8963 12.5868L59.2159 7.75963C59.2159 7.75963 58.8682 6.89645 59.0436 6.55358C59.2159 6.2077 59.5635 6.55358 59.5635 6.55358C59.5635 6.55358 59.7359 3.96704 59.9112 2.76098C59.9112 1.55493 58.8712 1.20906 58.5236 1.03762C58.1759 1.03762 57.136 0.866191 57.136 0.866191C57.136 0.866191 56.7883 0.348883 56.096 0.177449C55.4037 0.00601521 54.5361 0.348883 54.5361 0.348883C54.5361 0.348883 53.8408 0 53.4931 0C52.9732 0 52.4532 0 52.1055 0C51.9332 0.171434 51.7579 0.517309 51.7579 0.517309L51.5886 0.688742Z" fill="#FFC0D1"/>
<path d="M51.5887 0.688753H51.4164C50.8964 2.06925 50.5487 4.48135 51.0687 5.86184C51.4164 6.72502 50.7211 7.24233 50.0288 7.41376C50.0288 7.41376 49.8564 8.61981 49.8564 10.1717C50.0288 11.5522 50.8964 12.7583 50.8964 12.7583L59.216 7.93107C59.216 7.93107 58.8683 7.06789 59.0437 6.72502C59.216 6.37915 59.5636 6.72502 59.5636 6.72502C59.5636 6.72502 59.736 4.13848 59.9113 2.93243C59.9113 2.93243 59.9113 2.93243 59.9113 2.761C59.739 2.58956 59.5636 2.41512 59.3913 2.41512C58.8714 2.24369 58.3514 4.31292 58.0037 4.48435C57.8314 4.48435 56.2715 4.31292 56.2715 3.96705C56.0992 3.79561 56.2715 3.44974 56.7915 2.24369C56.9638 1.89781 57.1391 1.55494 57.3114 1.20907H57.1391C57.1391 1.20907 56.9668 1.03764 56.7915 0.863195C56.2715 1.89781 55.7515 3.79561 55.5792 3.79561C55.4069 3.79561 54.0193 3.62418 54.0193 3.44974C53.8469 3.10386 54.3669 1.55194 54.7116 0.51732C54.5392 0.51732 54.5392 0.51732 54.5392 0.51732C54.5392 0.51732 54.3669 0.51732 54.3669 0.345886C52.287 4.65579 54.3669 5.51897 52.9793 5.86184C51.5917 6.20471 51.5917 6.55058 51.4194 3.96404C51.2471 1.8948 51.7671 1.3775 51.7671 0.688753H51.5887Z" fill="url(#paint8_linear)"/>
<path d="M56.45 11.7688C56.45 11.7688 58.5178 9.99728 59.5578 8.96267C60.5977 7.75661 60.0778 5.68738 58.6901 5.3415C57.3025 4.99563 54.7057 4.30689 54.0104 3.96101C53.3151 3.61514 52.7981 4.64975 53.6627 5.68437C54.5304 6.54756 56.2626 7.2363 56.2626 7.2363C54.5304 7.40773 51.4105 7.92504 50.0229 11.2003C49.8506 11.7176 40.3188 28.0971 37.8912 37.0628C35.4637 46.1999 45.6908 70.8562 45.6908 70.8562C45.6908 70.8562 48.2907 67.9238 50.5429 65.1658C52.7951 62.4079 52.9704 60.8559 52.9704 60.6845C52.9704 60.5131 47.4261 48.9608 46.9061 39.9952C46.3861 31.0295 52.7981 19.6517 56.0903 12.238L56.45 11.7688Z" fill="#FFC0D1"/>
<path d="M38.2437 36.0342C38.0714 36.38 38.0714 36.7229 37.8961 37.0688C35.4685 46.2059 45.6957 70.8623 45.6957 70.8623C45.6957 70.8623 48.2956 67.9299 50.5478 65.1719C51.5877 63.9658 52.1077 62.9312 52.4554 62.2395L48.4709 64.9974C45.1757 56.8949 39.1083 44.4825 38.2437 36.0342Z" fill="url(#paint9_linear)"/>
<path d="M56.2659 54.1369L54.0137 61.7221C54.0137 61.7221 55.9213 65.3433 56.6135 67.584C57.3058 69.8246 59.0411 71.8939 60.9457 71.8939C62.8532 72.0653 63.3732 69.3073 63.3732 69.3073C63.3732 69.3073 60.9457 65.6862 60.9457 64.9974C60.7733 64.3087 61.9856 61.0334 61.9856 61.0334C61.9856 61.0334 63.7178 54.3084 56.2659 54.1369Z" fill="#FFC0D1"/>
<path d="M56.2646 54.1369L55.5723 56.2062C57.8245 60.6875 60.772 65.0004 60.772 65.0004C60.5997 64.3117 61.8119 61.0364 61.8119 61.0364C61.8119 61.0364 63.5442 54.3114 56.0922 54.14H56.2646V54.1369Z" fill="#F49FBC"/>
<path d="M56.0932 55.6889C56.0932 55.6889 56.9608 57.4122 58.3454 58.9642C59.733 60.3447 62.5052 62.068 64.2374 63.1026C65.9697 63.9658 68.7419 62.9312 69.6095 61.5507C70.9971 59.1356 72.9016 46.8946 72.9016 46.8946C72.9016 46.8946 71.1694 46.0315 70.4741 44.9968C69.7818 43.9622 69.7818 43.099 69.7818 43.099C69.7818 43.099 67.8742 45.6856 66.142 47.5804C64.4097 49.4782 59.21 51.2015 59.21 51.2015C59.21 51.2015 58.3424 47.5804 56.2625 48.4436C54.0103 49.1323 54.1826 51.2015 54.7026 52.582C55.2225 53.9625 56.2625 54.3054 56.2625 54.3054L56.0902 55.8573V55.6889H56.0932Z" fill="#FFC0D1"/>
<path d="M77.5811 113.101L57.6528 187.064C57.6528 187.064 57.3051 188.27 58.1728 188.27C59.0404 188.27 59.385 187.753 59.7327 187.236C60.0803 186.547 85.9007 112.584 85.9007 112.584L77.5811 113.273V113.101Z" fill="#F5BEA4"/>
<path d="M157.82 115.513H76.1963V118.1H157.82V115.513Z" fill="#F5BEA4"/>
<path d="M94.9127 111.203H80.3564C80.3564 111.203 81.0487 107.928 86.0762 107.239C91.1036 106.551 94.3957 109.137 95.088 111.203H94.9127Z" fill="#0B2EA4"/>
<path d="M90.0605 97.7563L91.2728 86.0326C91.6205 82.7574 91.2728 82.7574 89.8852 80.8596C88.3253 78.9618 88.4976 76.7211 88.4976 76.7211C89.8852 64.3087 91.4451 50.6872 91.4451 50.6872C91.4451 50.6872 91.6174 49.1353 93.3527 49.1353H91.6204C89.8882 49.1353 89.7129 50.6872 89.7129 50.6872C89.7129 50.6872 84.6885 94.8239 84.6885 96.3758C84.6885 97.9277 85.7284 97.9277 85.7284 97.9277H90.4082L90.0605 97.7563Z" fill="white"/>
<path d="M28.3655 111.549H55.2258C56.6617 111.549 57.8256 112.707 57.8256 114.136V115.688C57.8256 117.116 56.6617 118.274 55.2258 118.274H28.3655C26.9295 118.274 25.7656 117.116 25.7656 115.688V114.136C25.7656 112.707 26.9295 111.549 28.3655 111.549Z" fill="#C5BBFF"/>
<path d="M55.4011 118.271C55.2288 118.271 55.0535 118.271 54.8811 118.271H28.7132C27.1532 118.271 25.7656 117.065 25.7656 115.685V115.339H45.5216H52.1059L55.5704 118.097L55.4011 118.271Z" fill="#A79BFF"/>
<path d="M48.1214 111.549H60.9454C62.3813 111.549 63.5452 112.707 63.5452 114.136V115.688C63.5452 117.116 62.3813 118.274 60.9454 118.274H48.1214C46.6854 118.274 45.5215 117.116 45.5215 115.688V114.136C45.5215 112.707 46.6854 111.549 48.1214 111.549Z" fill="#A79BFF"/>
<path d="M56.0938 165.858L51.7617 175.858C53.6693 175.858 55.0539 175.686 55.0539 175.686L57.4814 166.378L58.1737 163.963C58.1737 163.963 58.1737 163.963 57.4814 163.963C57.3091 163.963 57.1338 163.963 56.9615 163.791L56.0938 165.689V165.858Z" fill="#B8B5FF"/>
<path d="M56.0932 165.858L56.9608 163.96C56.4408 163.788 56.0932 163.442 56.0932 163.442L39.457 173.097C40.497 173.786 41.7092 174.477 43.2692 174.995C46.389 175.858 49.5089 176.029 51.7611 176.029L56.0932 166.029V165.858Z" fill="#A79BFF"/>
<path d="M159.549 111.203H74.4609V115.844H159.549V111.203Z" fill="#DFF4FF"/>
<path d="M131.997 111.203H74.4609V115.844H131.997V111.203Z" fill="white"/>
<path d="M255 53.0356L248.096 28L222.396 34.6635L218.567 41.2132L210.853 41.1563L192 59.4715L210.853 77.7868L218.567 77.7299L222.396 84.2796L248.096 91L255 66.0213L251.114 59.5285L255 53.0356ZM219.206 42.2564L238.875 37.3315L227.56 56.3421H204.935L219.206 42.2564ZM219.206 76.6235L204.992 62.5378H227.617L238.932 81.5484L219.206 76.6235ZM244.387 78.4759L233.072 59.4715L244.387 40.4609L249.842 59.4715L244.387 78.4759Z" fill="#FF92E2"/>
<path d="M239.687 132.441C239.706 132.409 239.724 132.378 239.741 132.347L239.686 132.44L239.687 132.441Z" fill="#FF92E2"/>
<path d="M228.321 138.945C233.183 138.945 237.426 136.327 239.687 132.441L251.126 138.986C246.624 146.685 238.24 151.893 228.615 151.997L228.321 152C218.554 152 210.029 146.745 205.485 138.94C203.269 135.127 202 130.71 202 126C202 111.64 213.783 100 228.321 100C238.026 100 246.505 105.192 251.068 112.91L239.611 119.426C237.356 115.652 233.217 113.104 228.471 113.052H228.321C221.081 113.052 215.213 118.846 215.213 125.997C215.213 128.335 215.845 130.527 216.942 132.421C219.203 136.318 223.45 138.945 228.321 138.945Z" fill="#FF92E2"/>
<path d="M251.068 112.912C251.075 112.925 251.082 112.937 251.09 112.949L251.068 112.912Z" fill="#FF92E2"/>
<path fill-rule="evenodd" clip-rule="evenodd" d="M258 124.051V122.207H254.268V118.52H252.401V122.207H248.669V118.52H246.801V122.207H243.069V124.051H246.801V127.738H243.069V129.583H246.801V133.269H248.669V129.583H252.401V133.269H254.268V129.583H258V127.738H254.268V124.051H258ZM252.401 127.738H248.669V124.051H252.401V127.738Z" fill="#FF92E2"/>
<circle opacity="0.8" cx="140" cy="90" r="46" fill="white"/>
<path d="M152.5 85.6699C155.833 87.5944 155.833 92.4056 152.5 94.3301L137.5 102.99C134.167 104.915 130 102.509 130 98.6603L130 81.3398C130 77.4907 134.167 75.0851 137.5 77.0096L152.5 85.6699Z" fill="#2F80ED"/>
</g>
<defs>
<linearGradient id="paint0_linear" x1="7.56756" y1="344.032" x2="7.23984" y2="-108.871" gradientUnits="userSpaceOnUse">
<stop stop-color="#702EEB"/>
<stop offset="1" stop-color="#FF22B0"/>
</linearGradient>
<linearGradient id="paint1_linear" x1="-15.1351" y1="-69.1071" x2="137.718" y2="330.133" gradientUnits="userSpaceOnUse">
<stop stop-color="#AA27FF"/>
<stop offset="0.651" stop-color="#FF57BC"/>
<stop offset="1" stop-color="#FFB0C1"/>
</linearGradient>
<linearGradient id="paint2_linear" x1="-9.19938" y1="249.204" x2="288.223" y2="-69.9664" gradientUnits="userSpaceOnUse">
<stop stop-color="#AA27FF"/>
<stop offset="0.7608" stop-color="#FF57BC"/>
<stop offset="1" stop-color="#FFB0C1"/>
</linearGradient>
<linearGradient id="paint3_linear" x1="164.387" y1="61.5368" x2="162.159" y2="91.108" gradientUnits="userSpaceOnUse">
<stop stop-color="#A1D5FF"/>
<stop offset="1" stop-color="#CDEEFF"/>
</linearGradient>
<linearGradient id="paint4_linear" x1="55.2436" y1="115.504" x2="42.2203" y2="77.1916" gradientUnits="userSpaceOnUse">
<stop stop-color="#8B7AF5"/>
<stop offset="1" stop-color="#A79BFF"/>
</linearGradient>
<linearGradient id="paint5_linear" x1="66.6225" y1="91.1459" x2="76.3462" y2="94.8982" gradientUnits="userSpaceOnUse">
<stop stop-color="#F49FBC"/>
<stop offset="1" stop-color="#FFC0D1"/>
</linearGradient>
<linearGradient id="paint6_linear" x1="145.005" y1="169.09" x2="147.325" y2="171.896" gradientUnits="userSpaceOnUse">
<stop stop-color="#F49FBC"/>
<stop offset="1" stop-color="#FFC0D1"/>
</linearGradient>
<linearGradient id="paint7_linear" x1="87.5945" y1="173.06" x2="88.4177" y2="175.679" gradientUnits="userSpaceOnUse">
<stop stop-color="#F49FBC"/>
<stop offset="1" stop-color="#FFC0D1"/>
</linearGradient>
<linearGradient id="paint8_linear" x1="52.8511" y1="12.4918" x2="56.4261" y2="0.44704" gradientUnits="userSpaceOnUse">
<stop stop-color="#F49FBC"/>
<stop offset="1" stop-color="#FFC0D1"/>
</linearGradient>
<linearGradient id="paint9_linear" x1="44.0794" y1="67.2642" x2="45.6207" y2="39.5246" gradientUnits="userSpaceOnUse">
<stop stop-color="#F49FBC"/>
<stop offset="1" stop-color="#FFC0D1"/>
</linearGradient>
</defs>
</svg>
